<?xml version="1.0" encoding="UTF-8"?>
<svg width="399px" height="385px" viewBox="0 0 399 385" version="1.1" xmlns="http://www.w3.org/2000/svg" xmlns:xlink="http://www.w3.org/1999/xlink">
    <!-- Generator: Sketch 52.5 (67469) - http://www.bohemiancoding.com/sketch -->
    <title>Group 10</title>
    <desc>Created with Sketch.</desc>
    <g id="Page-2" stroke="none" stroke-width="1" fill="none" fill-rule="evenodd">
        <g id="Group-10">
            <path d="M117.015737,230.355881 L117,230.355964 C115.067003,230.355964 113.5,231.922967 113.5,233.855964 L113.5,379.496504 C113.5,381.429501 115.067003,382.996504 117,382.996504 L339.344608,382.996504 C341.277605,382.996504 342.844608,381.429501 342.844608,379.496504 L342.844608,209 C342.844608,207.067003 341.277605,205.5 339.344608,205.5 L279.652313,205.5 C278.760857,205.5 277.902997,205.840161 277.253781,206.451075 C267.667275,215.47194 260.181574,221.340354 254.730304,224.07831 C247.107399,227.906993 223.284543,229.240919 117.015737,230.355881 Z M116.99213,227.355969 C116.994753,227.355965 116.997376,227.355964 117,227.355964 L116.984263,227.356046 C116.986886,227.356019 116.989509,227.355991 116.992131,227.355964 Z" id="Rectangle" stroke="#000000" stroke-width="3" fill="#FFFFFF"></path>
            <path d="M166.561403,284.5 C166.003087,284.5 165.490971,284.810087 165.232219,285.304823 L115.625383,380.153541 C115.513174,380.368085 115.454567,380.606602 115.454567,380.848717 C115.454567,381.677144 116.126139,382.348717 116.954567,382.348717 L342.583687,382.348717 C343.127297,382.348717 343.628362,382.054605 343.893372,381.579967 L396.85124,286.73125 C396.976039,286.507733 397.041556,286.255996 397.041556,286 C397.041556,285.171573 396.369983,284.5 395.541556,284.5 L166.561403,284.5 Z" id="Rectangle" stroke="#000000" stroke-width="3" fill="#FFFFFF"></path>
            <g id="Stacked-Group" transform="translate(27.000000, 180.000000)"></g>
            <path d="M2.55547878,31.9436719 C1.87376291,32.7545837 1.5,33.7800121 1.5,34.8394056 L1.5,204 C1.5,206.485281 3.51471863,208.5 6,208.5 L155,208.5 C157.485281,208.5 159.5,206.485281 159.5,204 L159.5,6 C159.5,3.51471863 157.485281,1.5 155,1.5 L30.2446577,1.5 C28.9159463,1.5 27.6551575,2.08720527 26.8001365,3.10426632 L2.55547878,31.9436719 Z" id="Rectangle" stroke="#000000" stroke-width="3" fill="#FFFFFF"></path>
            <path d="M27.5975069,63.92 L133.402493,63.92" id="Line" stroke="#000000" stroke-width="3" stroke-linecap="round"></path>
            <path d="M27.5975069,40.3466667 L133.402493,40.3466667" id="Line" stroke="#000000" stroke-width="3" stroke-linecap="round"></path>
            <path d="M27.5975069,87.4933333 L133.402493,87.4933333" id="Line" stroke="#000000" stroke-width="3" stroke-linecap="round"></path>
            <path d="M27.5975069,111.066667 L133.402493,111.066667" id="Line" stroke="#000000" stroke-width="3" stroke-linecap="round"></path>
            <path d="M27.5975069,134.64 L133.402493,134.64" id="Line" stroke="#000000" stroke-width="3" stroke-linecap="round"></path>
            <path d="M27.5975069,157.306667 L133.402493,157.306667" id="Line" stroke="#000000" stroke-width="3" stroke-linecap="round"></path>
            <path d="M27.5975069,180.88 L133.402493,180.88" id="Line" stroke="#000000" stroke-width="3" stroke-linecap="round"></path>
            <g id="Group" transform="translate(180.809709, 185.662693) rotate(-33.000000) translate(-180.809709, -185.662693) translate(125.809709, 131.162693)" stroke="#000000">
                <circle id="Oval" stroke-width="5" fill="#FFFFFF" transform="translate(55.000000, 54.500000) rotate(89.000000) translate(-55.000000, -54.500000) " cx="55" cy="54.5" r="53.5"></circle>
                <polyline id="Path" stroke-width="7" stroke-linecap="round" transform="translate(55.314285, 76.587158) rotate(179.000000) translate(-55.314285, -76.587158) " points="25.8142853 90.5871583 55.3142853 62.5871583 55.3142853 62.5871583 84.8142853 90.5871583"></polyline>
                <path d="M21.6676741,51.5867186 L88.6676741,51.5867186" id="Line-2" stroke-width="7" stroke-linecap="round" transform="translate(55.167674, 51.086719) rotate(89.000000) translate(-55.167674, -51.086719) "></path>
            </g>
        </g>
    </g>
</svg>