<?xml version="1.0" encoding="UTF-8" standalone="no"?>
<!DOCTYPE svg PUBLIC "-//W3C//DTD SVG 1.1//EN" "http://www.w3.org/Graphics/SVG/1.1/DTD/svg11.dtd">
<svg width="100%" height="100%" viewBox="0 0 358 254" version="1.1" xmlns="http://www.w3.org/2000/svg" xmlns:xlink="http://www.w3.org/1999/xlink" xml:space="preserve" xmlns:serif="http://www.serif.com/" style="fill-rule:evenodd;clip-rule:evenodd;stroke-linecap:round;">
    <g id="Path" transform="matrix(1,0,0,1,4.68466,8.24621)">
        <path d="M228,143C228,101.579 206.51,68 180,68C153.49,68 132,101.579 132,143L228,143Z" style="fill:white;stroke:black;stroke-width:4px;"/>
    </g>
    <g id="Path1" serif:id="Path" transform="matrix(1,0,0,1,4.68466,8.24621)">
        <path d="M322,143C322,101.579 300.51,68 274,68C247.49,68 226,101.579 226,143L322,143Z" style="fill:white;stroke:black;stroke-width:4px;"/>
    </g>
    <g id="Oval" transform="matrix(1,0,0,1,4.68466,8.24621)">
        <ellipse cx="177" cy="32" rx="31" ry="32" style="fill:white;stroke:black;stroke-width:4px;stroke-linecap:butt;"/>
    </g>
    <g id="Path2" serif:id="Path" transform="matrix(1,0,0,1,4.68466,8.24621)">
        <path d="M322,143C322,101.579 300.51,68 274,68C247.49,68 226,101.579 226,143L322,143Z" style="fill:white;stroke:black;stroke-width:4px;"/>
    </g>
    <g id="Path3" serif:id="Path" transform="matrix(1,0,0,1,4.68466,8.24621)">
        <path d="M322,143C322,101.579 300.51,68 274,68C247.49,68 226,101.579 226,143L322,143Z" style="fill:white;stroke:black;stroke-width:4px;"/>
    </g>
    <g id="Oval1" serif:id="Oval" transform="matrix(1,0,0,1,4.68466,8.24621)">
        <ellipse cx="273" cy="32" rx="31" ry="32" style="fill:white;stroke:black;stroke-width:4px;stroke-linecap:butt;"/>
    </g>
    <g id="Path4" serif:id="Path" transform="matrix(1,0,0,1,4.68466,8.24621)">
        <path d="M127,140.581C127,99.159 105.51,68 79,68C52.49,68 31,101.579 31,143L127,140.581Z" style="fill:white;stroke:black;stroke-width:4px;"/>
    </g>
    <g id="Oval2" serif:id="Oval" transform="matrix(1,0,0,1,4.68466,8.24621)">
        <ellipse cx="77" cy="32" rx="31" ry="32" style="fill:white;stroke:black;stroke-width:4px;stroke-linecap:butt;"/>
    </g>
    <g id="Rectangle" transform="matrix(1,0,0,1,4.68466,8.24621)">
        <rect x="16" y="105" width="319" height="132" style="fill:white;stroke:black;stroke-width:4px;stroke-linecap:butt;"/>
    </g>
    <g id="Rectangle1" serif:id="Rectangle" transform="matrix(1,0,0,1,4.68466,8.24621)">
        <rect x="1.5" y="101.5" width="345" height="19" style="fill:white;stroke:black;stroke-width:3px;stroke-linecap:butt;"/>
    </g>
</svg>
