<?xml version="1.0" encoding="UTF-8" standalone="no"?>
<!DOCTYPE svg PUBLIC "-//W3C//DTD SVG 1.1//EN" "http://www.w3.org/Graphics/SVG/1.1/DTD/svg11.dtd">
<svg width="100%" height="100%" viewBox="0 0 373 289" version="1.1" xmlns="http://www.w3.org/2000/svg" xmlns:xlink="http://www.w3.org/1999/xlink" xml:space="preserve" xmlns:serif="http://www.serif.com/" style="fill-rule:evenodd;clip-rule:evenodd;">
    <g id="Group-9" transform="matrix(1,0,0,1,-2,-19)">
        <g id="Rectangle" transform="matrix(-1,0,0,1,296,0)">
            <path d="M52.016,174.12L52,174.12C50.067,174.12 48.5,175.687 48.5,177.62L48.5,303C48.5,304.933 50.067,306.5 52,306.5L244,306.5C245.933,306.5 247.5,304.933 247.5,303L247.5,156C247.5,154.067 245.933,152.5 244,152.5L193.016,152.5C192.126,152.5 191.268,152.839 190.619,153.449C182.362,161.209 175.903,166.265 171.178,168.639C164.509,171.99 143.912,173.15 52.016,174.12ZM51.992,171.12C51.995,171.12 51.997,171.12 52,171.12L51.984,171.12C51.987,171.12 51.989,171.12 51.992,171.12L51.992,171.12Z" style="fill:white;stroke:black;stroke-width:3px;"/>
        </g>
        <g id="Group-4" transform="matrix(0.945519,0.325568,-0.325568,0.945519,145.711,0.247495)">
            <g id="Citations" transform="matrix(1,0,0,1,0.658534,18.9024)">
                <g id="Cite" transform="matrix(1,0,0,1,221.584,0)">
                    <path id="Rectangle1" serif:id="Rectangle" d="M11.482,5.256C11.482,2.631 9.351,0.5 6.726,0.5L5.256,0.5C2.631,0.5 0.5,2.631 0.5,5.256C0.5,7.881 2.631,10.013 5.256,10.013L6.726,10.013C9.351,10.013 11.482,7.881 11.482,5.256Z" style="stroke:black;stroke-width:1px;"/>
                    <g id="Line-3" transform="matrix(0.997564,0.0697565,-0.0697565,0.997564,0.7299,-0.500576)">
                        <path d="M10.355,3.215C10.225,5.433 9.913,7.964 9.418,10.807C9.291,11.535 8.974,12.135 8.701,12.717C7.62,15.025 6.289,16.515 4.709,17.186" style="fill:none;stroke:black;stroke-width:5px;stroke-linecap:round;"/>
                    </g>
                </g>
                <g id="Cite1" serif:id="Cite" transform="matrix(1,0,0,1,235.68,0)">
                    <path id="Rectangle2" serif:id="Rectangle" d="M11.482,5.256C11.482,2.631 9.351,0.5 6.726,0.5L5.256,0.5C2.631,0.5 0.5,2.631 0.5,5.256C0.5,7.881 2.631,10.013 5.256,10.013L6.726,10.013C9.351,10.013 11.482,7.881 11.482,5.256Z" style="stroke:black;stroke-width:1px;"/>
                    <g id="Line-31" serif:id="Line-3" transform="matrix(0.997564,0.0697565,-0.0697565,0.997564,0.7299,-0.500576)">
                        <path d="M10.355,3.215C10.225,5.433 9.913,7.964 9.418,10.807C9.291,11.535 8.974,12.135 8.701,12.717C7.62,15.025 6.289,16.515 4.709,17.186" style="fill:none;stroke:black;stroke-width:5px;stroke-linecap:round;"/>
                    </g>
                </g>
                <g id="Cite2" serif:id="Cite" transform="matrix(-1,0,0,1,12.9596,0)">
                    <path id="Rectangle3" serif:id="Rectangle" d="M11.482,5.256C11.482,2.631 9.351,0.5 6.726,0.5L5.256,0.5C2.631,0.5 0.5,2.631 0.5,5.256C0.5,7.881 2.631,10.013 5.256,10.013L6.726,10.013C9.351,10.013 11.482,7.881 11.482,5.256Z" style="stroke:black;stroke-width:1px;"/>
                    <g id="Line-32" serif:id="Line-3" transform="matrix(0.997564,0.0697565,-0.0697565,0.997564,0.7299,-0.500576)">
                        <path d="M10.355,3.215C10.225,5.433 9.913,7.964 9.418,10.807C9.291,11.535 8.974,12.135 8.701,12.717C7.62,15.025 6.289,16.515 4.709,17.186" style="fill:none;stroke:black;stroke-width:5px;stroke-linecap:round;"/>
                    </g>
                </g>
                <g id="Cite3" serif:id="Cite" transform="matrix(-1,0,0,1,27.7606,0)">
                    <path id="Rectangle4" serif:id="Rectangle" d="M11.482,5.256C11.482,2.631 9.351,0.5 6.726,0.5L5.256,0.5C2.631,0.5 0.5,2.631 0.5,5.256C0.5,7.881 2.631,10.013 5.256,10.013L6.726,10.013C9.351,10.013 11.482,7.881 11.482,5.256Z" style="stroke:black;stroke-width:1px;"/>
                    <g id="Line-33" serif:id="Line-3" transform="matrix(0.997564,0.0697565,-0.0697565,0.997564,0.7299,-0.500576)">
                        <path d="M10.355,3.215C10.225,5.433 9.913,7.964 9.418,10.807C9.291,11.535 8.974,12.135 8.701,12.717C7.62,15.025 6.289,16.515 4.709,17.186" style="fill:none;stroke:black;stroke-width:5px;stroke-linecap:round;"/>
                    </g>
                </g>
            </g>
            <g id="Document" transform="matrix(1,0,0,1,49.8611,0.691151)">
                <path id="Rectangle5" serif:id="Rectangle" d="M3.424,29.298C2.18,30.817 1.5,32.719 1.5,34.683L1.5,190.085C1.5,194.78 5.306,198.585 10,198.585L139.421,198.585C144.116,198.585 147.921,194.78 147.921,190.085L147.921,10C147.921,5.306 144.116,1.5 139.421,1.5L30.212,1.5C27.664,1.5 25.25,2.643 23.636,4.615L3.424,29.298Z" style="fill:white;stroke:black;stroke-width:3px;"/>
                <g id="Stacked-Group" transform="matrix(1,0,0,1,24.1624,28.3594)">
                    <path id="Line" d="M1.04,27.342L98.66,27.342" style="fill:none;stroke:black;stroke-width:3px;stroke-linecap:round;"/>
                    <path id="Line1" serif:id="Line" d="M0.886,1.026L98.506,1.026" style="fill:none;stroke:black;stroke-width:3px;stroke-linecap:round;"/>
                    <path id="Line2" serif:id="Line" d="M1.194,53.658L98.814,53.658" style="fill:none;stroke:black;stroke-width:3px;stroke-linecap:round;"/>
                    <path id="Line3" serif:id="Line" d="M0.904,76.46L98.524,76.46" style="fill:none;stroke:black;stroke-width:3px;stroke-linecap:round;"/>
                    <path id="Line4" serif:id="Line" d="M1.144,98.288L98.764,98.288" style="fill:none;stroke:black;stroke-width:3px;stroke-linecap:round;"/>
                    <path id="Line5" serif:id="Line" d="M0.854,121.091L98.474,121.091" style="fill:none;stroke:black;stroke-width:3px;stroke-linecap:round;"/>
                    <path id="Line6" serif:id="Line" d="M1.372,143.644L98.992,143.644" style="fill:none;stroke:black;stroke-width:3px;stroke-linecap:round;"/>
                </g>
            </g>
        </g>
        <g id="Rectangle6" serif:id="Rectangle" transform="matrix(-1,0,0,1,251,0)">
            <path d="M47.684,221.5C47.125,221.5 46.612,221.811 46.354,222.307L3.616,304.307C3.505,304.521 3.447,304.759 3.447,305C3.447,305.828 4.118,306.5 4.947,306.5L200.273,306.5C200.818,306.5 201.319,306.205 201.584,305.729L247.208,223.729C247.333,223.506 247.398,223.255 247.398,223C247.398,222.172 246.726,221.5 245.898,221.5L47.684,221.5Z" style="fill:white;stroke:black;stroke-width:3px;"/>
        </g>
        <g id="Group" transform="matrix(-0.615661,-0.788011,0.788011,-0.615661,310.608,281.117)">
            <g id="Oval" transform="matrix(0.0174524,0.999848,-0.999848,0.0174524,94.4059,-1.20357)">
                <ellipse cx="47.815" cy="47.432" rx="46.562" ry="46.511" style="fill:white;stroke:black;stroke-width:5px;"/>
            </g>
            <g id="Path" transform="matrix(-0.999848,0.0174524,-0.0174524,-0.999848,97.3335,132.46)">
                <path d="M22.442,78.84L48.089,54.47L73.735,78.839" style="fill:none;stroke:black;stroke-width:7px;stroke-linecap:round;"/>
            </g>
            <g id="Line-2" transform="matrix(0.0174524,0.999848,-0.999848,0.0174524,91.5789,-4.26811)">
                <path d="M18.37,44.461L77.552,44.462" style="fill:none;stroke:black;stroke-width:7px;stroke-linecap:round;"/>
            </g>
        </g>
    </g>
</svg>
