<?xml version="1.0" encoding="UTF-8" standalone="no"?>
<!DOCTYPE svg PUBLIC "-//W3C//DTD SVG 1.1//EN" "http://www.w3.org/Graphics/SVG/1.1/DTD/svg11.dtd">
<svg width="100%" height="100%" viewBox="0 0 280 333" version="1.1" xmlns="http://www.w3.org/2000/svg" xmlns:xlink="http://www.w3.org/1999/xlink" xml:space="preserve" xmlns:serif="http://www.serif.com/" style="fill-rule:evenodd;clip-rule:evenodd;">
    <g id="Group-8">
        <path id="Rectangle" d="M5.016,26.356L5,26.356C3.067,26.356 1.5,27.923 1.5,29.856L1.5,175.497C1.5,177.43 3.067,178.997 5,178.997L227.345,178.997C229.278,178.997 230.845,177.43 230.845,175.497L230.845,5C230.845,3.067 229.278,1.5 227.345,1.5L167.652,1.5C166.761,1.5 165.903,1.84 165.254,2.451C155.667,11.472 148.182,17.34 142.73,20.078C135.107,23.907 111.285,25.241 5.016,26.356ZM4.992,23.356C4.995,23.356 4.997,23.356 5,23.356L4.984,23.356C4.987,23.356 4.99,23.356 4.992,23.356L4.992,23.356Z" style="fill:white;stroke:black;stroke-width:3px;"/>
        <path id="Rectangle1" serif:id="Rectangle" d="M20.016,70.356L20,70.356C18.067,70.356 16.5,71.923 16.5,73.856L16.5,219.497C16.5,221.43 18.067,222.997 20,222.997L242.345,222.997C244.278,222.997 245.845,221.43 245.845,219.497L245.845,49C245.845,47.067 244.278,45.5 242.345,45.5L182.652,45.5C181.761,45.5 180.903,45.84 180.254,46.451C170.667,55.472 163.182,61.34 157.73,64.078C150.107,67.907 126.285,69.241 20.016,70.356ZM19.992,67.356C19.995,67.356 19.997,67.356 20,67.356L19.984,67.356C19.987,67.356 19.99,67.356 19.992,67.356L19.992,67.356Z" style="fill:white;stroke:black;stroke-width:3px;"/>
        <path id="Rectangle2" serif:id="Rectangle" d="M33.016,116.356L33,116.356C31.067,116.356 29.5,117.923 29.5,119.856L29.5,265.497C29.5,267.43 31.067,268.997 33,268.997L255.345,268.997C257.278,268.997 258.845,267.43 258.845,265.497L258.845,95C258.845,93.067 257.278,91.5 255.345,91.5L195.652,91.5C194.761,91.5 193.903,91.84 193.254,92.451C183.667,101.472 176.182,107.34 170.73,110.078C163.107,113.907 139.285,115.241 33.016,116.356ZM32.992,113.356C32.995,113.356 32.997,113.356 33,113.356L32.984,113.356C32.987,113.356 32.99,113.356 32.992,113.356L32.992,113.356Z" style="fill:white;stroke:black;stroke-width:3px;"/>
        <g id="Rectangle3" serif:id="Rectangle" transform="matrix(0.996195,0.0871557,-0.0871557,0.996195,20.9006,-12.7617)">
            <path d="M45.439,169.078L45.424,169.078C43.491,169.078 41.924,170.645 41.924,172.578L41.924,318.218C41.924,320.151 43.491,321.718 45.424,321.718L267.768,321.718C269.701,321.718 271.268,320.151 271.268,318.218L271.268,147.722C271.268,145.789 269.701,144.222 267.768,144.222L208.076,144.222C207.184,144.222 206.327,144.562 205.677,145.173C196.091,154.194 188.605,160.062 183.154,162.8C175.531,166.629 151.708,167.963 45.439,169.078ZM45.416,166.078C45.418,166.078 45.421,166.078 45.424,166.078L45.408,166.078C45.41,166.078 45.413,166.078 45.416,166.078L45.416,166.078Z" style="fill:white;stroke:black;stroke-width:3px;"/>
        </g>
        <path id="Rectangle4" serif:id="Rectangle" d="M20,27L45,27L45,53L32.5,40L20,53L20,27Z"/>
        <path id="Rectangle5" serif:id="Rectangle" d="M35,71L60,71L60,97L47.5,84L35,97L35,71Z"/>
        <path id="Rectangle6" serif:id="Rectangle" d="M48,115L73,115L73,141L60.5,128L48,141L48,115Z"/>
        <g id="Rectangle7" serif:id="Rectangle" transform="matrix(0.996195,0.0871557,-0.0871557,0.996195,15.4349,-5.68055)">
            <path d="M60.27,160.918L85.27,160.918L85.27,186.918L72.77,173.918L60.27,186.918L60.27,160.918Z"/>
        </g>
        <path id="Line-15" d="M173.5,13.5L215.5,13.5" style="fill:none;stroke:black;stroke-width:4px;stroke-linecap:square;"/>
        <path id="Line-151" serif:id="Line-15" d="M188.5,58.5L230.5,58.5" style="fill:none;stroke:black;stroke-width:4px;stroke-linecap:square;"/>
        <path id="Line-152" serif:id="Line-15" d="M201.5,105.5L243.5,105.5" style="fill:none;stroke:black;stroke-width:4px;stroke-linecap:square;"/>
        <g id="Line-153" serif:id="Line-15" transform="matrix(0.996195,0.0871557,-0.0871557,0.996195,15.3335,-19.9485)">
            <path d="M215.115,165.623L257.115,165.623" style="fill:none;stroke:black;stroke-width:4px;stroke-linecap:square;"/>
        </g>
    </g>
</svg>
