<?xml version="1.0" encoding="UTF-8" standalone="no"?>
<!DOCTYPE svg PUBLIC "-//W3C//DTD SVG 1.1//EN" "http://www.w3.org/Graphics/SVG/1.1/DTD/svg11.dtd">
<svg width="100%" height="100%" viewBox="0 0 2000 300" version="1.1" xmlns="http://www.w3.org/2000/svg" xmlns:xlink="http://www.w3.org/1999/xlink" xml:space="preserve" xmlns:serif="http://www.serif.com/" style="fill-rule:evenodd;clip-rule:evenodd;">
    <g id="Logo--Earth-Archive" serif:id="Logo,-Earth-Archive" transform="matrix(1,0,0,1,808,15.5)">
        <g id="Rectangle" transform="matrix(1,0,0,1,-815,15.25)">
            <path d="M33.5,58.022L33.5,229.5L300.5,229.5L300.5,17.5C274.043,17.5 273.288,17.5 231.852,17.5C227.018,17.5 223.85,20.631 219.496,28.617C219.135,29.281 216.022,35.189 215.012,36.994C211.416,43.415 208.033,47.886 203.623,51.367C198.103,55.726 191.374,58.022 182.978,58.022C139.468,58.022 139.265,58.022 33.5,58.022L33.5,58.022Z" style="fill:white;stroke:black;stroke-width:3px;"/>
        </g>
        <g id="Oval" transform="matrix(1,0,0,1,-815,15.25)">
            <circle cx="152" cy="114" r="105" style="fill:white;stroke:black;stroke-width:2px;"/>
        </g>
        <g id="Path" transform="matrix(1,0,0,1,-815,15.25)">
            <path d="M199.277,54.591C186.76,67.048 179.067,74.515 159.924,69.127C153.378,67.284 157.35,57.665 149.855,60.438C131.079,67.384 139.418,93.408 152.83,101.383C178.567,116.686 168.291,92.911 174.621,125.484" style="fill:none;stroke:black;stroke-width:1px;"/>
        </g>
        <g id="Path-2" transform="matrix(1,0,0,1,-815,15.25)">
            <path d="M198.897,54.158C199.829,55.01 201.253,50.957 200.966,50.851C198.502,49.946 192.961,52.307 190.791,50.851C171.671,38.022 205.827,49.937 208.151,43.035C213.356,27.571 202.951,30.489 212.732,29" style="fill:none;stroke:black;stroke-width:1px;"/>
        </g>
        <g id="Path-3" transform="matrix(1,0,0,1,-815,15.25)">
            <path d="M244.245,64.711C216.277,71.968 226.764,108.192 244.145,118.395C246.048,119.512 252.621,120.65 250.636,119.688C249.847,119.306 214.852,102.246 211.458,113.569C210.43,116.999 211.458,120.731 211.458,124.312" style="fill:none;stroke:black;stroke-width:1px;"/>
        </g>
        <g id="Path1" serif:id="Path" transform="matrix(1,0,0,1,-815,15.25)">
            <path d="M57.57,68.739C72.049,72.231 105.356,84.171 120.07,76.56C124.731,74.149 120.767,65.881 119.33,60.834C116.333,50.31 113.332,39.315 106.935,30.438C103.378,25.502 111.362,42.37 110.348,48.369C109.946,50.746 105.889,50.342 103.507,50.713C100.806,51.134 97.963,51.358 95.307,50.713C93.882,50.367 92.579,49.213 91.925,47.901C88.384,40.804 103.285,36.021 107.044,35.597C137.264,32.182 146.93,43.851 135.077,11.511" style="fill:none;stroke:black;stroke-width:1px;"/>
        </g>
        <g id="Path-5" transform="matrix(1,0,0,1,-815,15.25)">
            <path d="M48.062,107.145C59.626,108.105 76.255,108.443 81.616,121.679C88.774,139.352 86.439,154.679 63.853,154.074C63.283,154.058 63.447,152.006 63.853,152.399L73.397,150.759C77.609,154.841 77.236,161.737 79.155,167.227" style="fill:none;stroke:black;stroke-width:1px;"/>
        </g>
        <g id="Rectangle1" serif:id="Rectangle" transform="matrix(1,0,0,1,-815,15.25)">
            <path d="M110.515,125.5C110.033,125.5 109.579,125.732 109.298,126.124L36.636,227.124C36.453,227.379 36.354,227.686 36.354,228C36.354,228.828 37.026,229.5 37.854,229.5L300.651,229.5C301.151,229.5 301.618,229.251 301.897,228.835L369.622,127.835C369.788,127.588 369.876,127.298 369.876,127C369.876,126.172 369.205,125.5 368.376,125.5L110.515,125.5Z" style="fill:white;stroke:black;stroke-width:3px;"/>
        </g>
        <g transform="matrix(1,0,0,1,-843,-17.2894)">
            <text x="429px" y="249.75px" style="font-family:'ArialMT', 'Arial', sans-serif;font-size:260px;">Archive.Earth</text>
        </g>
    </g>
</svg>
