<?xml version="1.0" encoding="UTF-8"?>
<svg width="280px" height="333px" viewBox="0 0 280 333" version="1.1" xmlns="http://www.w3.org/2000/svg" xmlns:xlink="http://www.w3.org/1999/xlink">
    <!-- Generator: Sketch 52.5 (67469) - http://www.bohemiancoding.com/sketch -->
    <title>Group 8</title>
    <desc>Created with Sketch.</desc>
    <g id="Page-2" stroke="none" stroke-width="1" fill="none" fill-rule="evenodd">
        <g id="Group-8">
            <path d="M5.01573699,26.3558813 L5,26.3559639 C3.06700338,26.3559639 1.5,27.9229673 1.5,29.8559639 L1.5,175.496504 C1.5,177.429501 3.06700338,178.996504 5,178.996504 L227.344608,178.996504 C229.277605,178.996504 230.844608,177.429501 230.844608,175.496504 L230.844608,5 C230.844608,3.06700338 229.277605,1.5 227.344608,1.5 L167.652313,1.5 C166.760857,1.5 165.902997,1.84016094 165.253781,2.45107456 C155.667275,11.47194 148.181574,17.3403535 142.730304,20.0783099 C135.107399,23.9069927 111.284543,25.2409194 5.01573699,26.3558813 Z M4.99213034,23.3559686 C4.9947532,23.3559654 4.99737642,23.3559639 5,23.3559639 L4.98426301,23.3560464 C4.9868858,23.3560189 4.98950854,23.3559914 4.99213122,23.3559639 Z" id="Rectangle" stroke="#000000" stroke-width="3" fill="#FFFFFF"></path>
            <path d="M20.015737,70.3558813 L20,70.3559639 C18.0670034,70.3559639 16.5,71.9229673 16.5,73.8559639 L16.5,219.496504 C16.5,221.429501 18.0670034,222.996504 20,222.996504 L242.344608,222.996504 C244.277605,222.996504 245.844608,221.429501 245.844608,219.496504 L245.844608,49 C245.844608,47.0670034 244.277605,45.5 242.344608,45.5 L182.652313,45.5 C181.760857,45.5 180.902997,45.8401609 180.253781,46.4510746 C170.667275,55.47194 163.181574,61.3403535 157.730304,64.0783099 C150.107399,67.9069927 126.284543,69.2409194 20.015737,70.3558813 Z M19.9921303,67.3559686 C19.9947532,67.3559654 19.9973764,67.3559639 20,67.3559639 L19.984263,67.3560464 C19.9868858,67.3560189 19.9895085,67.3559914 19.9921312,67.3559639 Z" id="Rectangle" stroke="#000000" stroke-width="3" fill="#FFFFFF"></path>
            <path d="M33.015737,116.355881 L33,116.355964 C31.0670034,116.355964 29.5,117.922967 29.5,119.855964 L29.5,265.496504 C29.5,267.429501 31.0670034,268.996504 33,268.996504 L255.344608,268.996504 C257.277605,268.996504 258.844608,267.429501 258.844608,265.496504 L258.844608,95 C258.844608,93.0670034 257.277605,91.5 255.344608,91.5 L195.652313,91.5 C194.760857,91.5 193.902997,91.8401609 193.253781,92.4510746 C183.667275,101.47194 176.181574,107.340354 170.730304,110.07831 C163.107399,113.906993 139.284543,115.240919 33.015737,116.355881 Z M32.9921303,113.355969 C32.9947532,113.355965 32.9973764,113.355964 33,113.355964 L32.984263,113.356046 C32.9868858,113.356019 32.9895085,113.355991 32.9921312,113.355964 Z" id="Rectangle" stroke="#000000" stroke-width="3" fill="#FFFFFF"></path>
            <path d="M45.4393197,169.077716 L45.4235827,169.077798 C43.4905861,169.077798 41.9235827,170.644802 41.9235827,172.577798 L41.9235827,318.218338 C41.9235827,320.151335 43.4905861,321.718338 45.4235827,321.718338 L267.768191,321.718338 C269.701187,321.718338 271.268191,320.151335 271.268191,318.218338 L271.268191,147.721835 C271.268191,145.788838 269.701187,144.221835 267.768191,144.221835 L208.075896,144.221835 C207.184439,144.221835 206.326579,144.561995 205.677363,145.172909 C196.090858,154.193775 188.605156,160.062188 183.153887,162.800144 C175.530981,166.628827 151.708126,167.962754 45.4393197,169.077716 Z M45.4157131,166.077803 C45.4183359,166.0778 45.4209592,166.077798 45.4235827,166.077798 L45.4078458,166.077881 C45.4104685,166.077853 45.4130913,166.077826 45.415714,166.077798 Z" id="Rectangle" stroke="#000000" stroke-width="3" fill="#FFFFFF" transform="translate(156.595887, 232.970086) rotate(5.000000) translate(-156.595887, -232.970086) "></path>
            <polygon id="Rectangle" fill="#000000" points="20 27 45 27 45 53 32.5 40 20 53"></polygon>
            <polygon id="Rectangle" fill="#000000" points="35 71 60 71 60 97 47.5 84 35 97"></polygon>
            <polygon id="Rectangle" fill="#000000" points="48 115 73 115 73 141 60.5 128 48 141"></polygon>
            <polygon id="Rectangle" fill="#000000" transform="translate(72.770457, 173.918174) rotate(5.000000) translate(-72.770457, -173.918174) " points="60.270457 160.918174 85.270457 160.918174 85.270457 186.918174 72.770457 173.918174 60.270457 186.918174"></polygon>
            <path d="M173.5,13.5 L215.5,13.5" id="Line-15" stroke="#000000" stroke-width="4" stroke-linecap="square"></path>
            <path d="M188.5,58.5 L230.5,58.5" id="Line-15" stroke="#000000" stroke-width="4" stroke-linecap="square"></path>
            <path d="M201.5,105.5 L243.5,105.5" id="Line-15" stroke="#000000" stroke-width="4" stroke-linecap="square"></path>
            <path d="M215.115002,165.623024 L257.115002,165.623024" id="Line-15" stroke="#000000" stroke-width="4" stroke-linecap="square" transform="translate(236.115002, 165.623024) rotate(5.000000) translate(-236.115002, -165.623024) "></path>
        </g>
    </g>
</svg>