<?xml version="1.0" encoding="UTF-8"?>
<svg width="429px" height="333px" viewBox="0 0 429 333" version="1.1" xmlns="http://www.w3.org/2000/svg" xmlns:xlink="http://www.w3.org/1999/xlink">
    <!-- Generator: Sketch 52.5 (67469) - http://www.bohemiancoding.com/sketch -->
    <title>Group 9</title>
    <desc>Created with Sketch.</desc>
    <g id="Page-2" stroke="none" stroke-width="1" fill="none" fill-rule="evenodd">
        <g id="Group-9" transform="translate(-2.000000, -22.000000)" stroke="#000000">
            <path d="M59.015737,200.355881 L59,200.355964 C57.0670034,200.355964 55.5,201.922967 55.5,203.855964 L55.5,349.496504 C55.5,351.429501 57.0670034,352.996504 59,352.996504 L281.344608,352.996504 C283.277605,352.996504 284.844608,351.429501 284.844608,349.496504 L284.844608,179 C284.844608,177.067003 283.277605,175.5 281.344608,175.5 L221.652313,175.5 C220.760857,175.5 219.902997,175.840161 219.253781,176.451075 C209.667275,185.47194 202.181574,191.340354 196.730304,194.07831 C189.107399,197.906993 165.284543,199.240919 59.015737,200.355881 Z M58.9921303,197.355969 C58.9947532,197.355965 58.9973764,197.355964 59,197.355964 L58.984263,197.356046 C58.9868858,197.356019 58.9895085,197.355991 58.9921312,197.355964 Z" id="Rectangle" stroke-width="3" fill="#FFFFFF" transform="translate(170.172304, 264.248252) scale(-1, 1) translate(-170.172304, -264.248252) "></path>
            <g id="Group-4" transform="translate(265.480129, 156.632631) rotate(19.000000) translate(-265.480129, -156.632631) translate(121.980129, 40.632631)">
                <g id="Citations" transform="translate(0.757484, 21.719034)">
                    <g id="Cite" transform="translate(254.878813, -0.000000)">
                        <rect id="Rectangle" fill="#000000" x="0.5" y="0.5" width="12.7821727" height="11.0789474" rx="5"></rect>
                        <path d="M11.911831,3.6942813 C11.7622013,6.24267092 11.4025938,9.15032313 10.8330083,12.4172379 C10.6872181,13.2534323 10.321951,13.9432716 10.0083075,14.6121318 C8.76459966,17.2644001 7.23391804,18.9759015 5.41626262,19.7466359" id="Line-3" stroke-width="5" stroke-linecap="round" transform="translate(8.664047, 11.720459) rotate(4.000000) translate(-8.664047, -11.720459) "></path>
                    </g>
                    <g id="Cite" transform="translate(271.093134, -0.000000)">
                        <rect id="Rectangle" fill="#000000" x="0.5" y="0.5" width="12.7821727" height="11.0789474" rx="5"></rect>
                        <path d="M11.911831,3.6942813 C11.7622013,6.24267092 11.4025938,9.15032313 10.8330083,12.4172379 C10.6872181,13.2534323 10.321951,13.9432716 10.0083075,14.6121318 C8.76459966,17.2644001 7.23391804,18.9759015 5.41626262,19.7466359" id="Line-3" stroke-width="5" stroke-linecap="round" transform="translate(8.664047, 11.720459) rotate(4.000000) translate(-8.664047, -11.720459) "></path>
                    </g>
                    <g id="Cite" transform="translate(7.906866, 10.000000) scale(-1, 1) translate(-7.906866, -10.000000) translate(0.906866, -0.000000)">
                        <rect id="Rectangle" fill="#000000" x="0.5" y="0.5" width="12.7821727" height="11.0789474" rx="5"></rect>
                        <path d="M11.911831,3.6942813 C11.7622013,6.24267092 11.4025938,9.15032313 10.8330083,12.4172379 C10.6872181,13.2534323 10.321951,13.9432716 10.0083075,14.6121318 C8.76459966,17.2644001 7.23391804,18.9759015 5.41626262,19.7466359" id="Line-3" stroke-width="5" stroke-linecap="round" transform="translate(8.664047, 11.720459) rotate(4.000000) translate(-8.664047, -11.720459) "></path>
                    </g>
                    <g id="Cite" transform="translate(24.931903, 10.000000) scale(-1, 1) translate(-24.931903, -10.000000) translate(17.931903, -0.000000)">
                        <rect id="Rectangle" fill="#000000" x="0.5" y="0.5" width="12.7821727" height="11.0789474" rx="5"></rect>
                        <path d="M11.911831,3.6942813 C11.7622013,6.24267092 11.4025938,9.15032313 10.8330083,12.4172379 C10.6872181,13.2534323 10.321951,13.9432716 10.0083075,14.6121318 C8.76459966,17.2644001 7.23391804,18.9759015 5.41626262,19.7466359" id="Line-3" stroke-width="5" stroke-linecap="round" transform="translate(8.664047, 11.720459) rotate(4.000000) translate(-8.664047, -11.720459) "></path>
                    </g>
                </g>
                <g id="Submit" transform="translate(57.111151, 0.178101)" stroke-width="3">
                    <g id="Document" transform="translate(0.242029, 0.616036)">
                        <path d="M3.42649017,33.9327764 C2.18076968,35.4523695 1.5,37.3566197 1.5,39.3215581 L1.5,219.899424 C1.5,224.593844 5.30557963,228.399424 10,228.399424 L161.873131,228.399424 C166.567551,228.399424 170.373131,224.593844 170.373131,219.899424 L170.373131,10 C170.373131,5.30557963 166.567551,1.5 161.873131,1.5 L34.0370032,1.5 C31.4904053,1.5 29.077971,2.64179637 27.4634933,4.61121827 L3.42649017,33.9327764 Z" id="Rectangle" fill="#FFFFFF"></path>
                        <g id="Stacked-Group" transform="translate(27.793007, 32.585092)" stroke-linecap="round">
                            <path d="M1.19620956,31.4157534 L113.484752,31.4157534" id="Line"></path>
                            <path d="M1.01916974,1.17852077 L113.307712,1.17852077" id="Line"></path>
                            <path d="M1.37324938,61.652986 L113.661792,61.652986" id="Line"></path>
                            <path d="M1.0400341,87.8536043 L113.328576,87.8536043" id="Line"></path>
                            <path d="M1.31569208,112.93404 L113.604234,112.93404" id="Line"></path>
                            <path d="M0.982476794,139.134658 L113.271019,139.134658" id="Line"></path>
                            <path d="M1.57788573,165.04836 L113.866428,165.04836" id="Line"></path>
                        </g>
                    </g>
                </g>
            </g>
            <path d="M54.5614027,254.5 C54.0030869,254.5 53.4909709,254.810087 53.2322189,255.304823 L3.62538276,350.153541 C3.51317416,350.368085 3.45456656,350.606602 3.45456656,350.848717 C3.45456656,351.677144 4.12613944,352.348717 4.95456656,352.348717 L230.583687,352.348717 C231.127297,352.348717 231.628362,352.054605 231.893372,351.579967 L284.85124,256.73125 C284.976039,256.507733 285.041556,256.255996 285.041556,256 C285.041556,255.171573 284.369983,254.5 283.541556,254.5 L54.5614027,254.5 Z" id="Rectangle" stroke-width="3" fill="#FFFFFF" transform="translate(144.326259, 303.424359) scale(-1, 1) translate(-144.326259, -303.424359) "></path>
            <g id="Group" transform="translate(366.412147, 246.158743) rotate(-128.000000) translate(-366.412147, -246.158743) translate(311.412147, 191.658743)">
                <circle id="Oval" stroke-width="5" fill="#FFFFFF" transform="translate(55.000000, 54.500000) rotate(89.000000) translate(-55.000000, -54.500000) " cx="55" cy="54.5" r="53.5"></circle>
                <polyline id="Path" stroke-width="7" stroke-linecap="round" transform="translate(55.314285, 76.587158) rotate(179.000000) translate(-55.314285, -76.587158) " points="25.8142853 90.5871583 55.3142853 62.5871583 55.3142853 62.5871583 84.8142853 90.5871583"></polyline>
                <path d="M21.6676741,51.5867186 L88.6676741,51.5867186" id="Line-2" stroke-width="7" stroke-linecap="round" transform="translate(55.167674, 51.086719) rotate(89.000000) translate(-55.167674, -51.086719) "></path>
            </g>
        </g>
    </g>
</svg>