<?xml version="1.0" encoding="UTF-8"?>
<svg width="451px" height="498px" viewBox="0 0 451 498" version="1.1" xmlns="http://www.w3.org/2000/svg" xmlns:xlink="http://www.w3.org/1999/xlink">
    <!-- Generator: Sketch 52.5 (67469) - http://www.bohemiancoding.com/sketch -->
    <title>Group</title>
    <desc>Created with Sketch.</desc>
    <g id="Archived.Earth-1.0" stroke="none" stroke-width="1" fill="none" fill-rule="evenodd">
        <g id="Artboard" transform="translate(-1329.000000, -205.000000)" stroke="#000000">
            <g id="Group" transform="translate(1286.000000, 187.000000)">
                <path d="M277.021824,66.965392 L266.850168,4.46539197" id="Line" stroke-width="8" stroke-linecap="round" transform="translate(271.850168, 35.465392) rotate(75.000000) translate(-271.850168, -35.465392) "></path>
                <path d="M251.401448,87.6084719 L293.729792,38.6084719" id="Line" stroke-width="8" stroke-linecap="round" transform="translate(272.229792, 63.108472) rotate(75.000000) translate(-272.229792, -63.108472) "></path>
                <path d="M263.643679,497.743821 L300.467918,445.378742" id="Line" stroke-width="8" stroke-linecap="round" transform="translate(282.055798, 471.561282) rotate(75.000000) translate(-282.055798, -471.561282) "></path>
                <path d="M289.021824,529.965392 L278.850168,467.465392" id="Line" stroke-width="8" stroke-linecap="round" transform="translate(283.850168, 498.465392) rotate(75.000000) translate(-283.850168, -498.465392) "></path>
                <path d="M249,346 C249,294.637518 219.674651,253 183.5,253 C147.325349,253 118,294.637518 118,346 L249,346 Z" id="Path" stroke-width="4" fill="#FFFFFF" stroke-linecap="round"></path>
                <ellipse id="Oval" stroke-width="4" fill="#FFFFFF" cx="183" cy="207" rx="42" ry="39"></ellipse>
                <path d="M422,345 C422,293.637518 392.674651,252 356.5,252 C320.325349,252 291,293.637518 291,345 L422,345 Z" id="Path" stroke-width="4" fill="#FFFFFF" stroke-linecap="round"></path>
                <ellipse id="Oval" stroke-width="4" fill="#FFFFFF" cx="356" cy="206" rx="42" ry="39"></ellipse>
                <path d="M486.634381,242.23588 C473.795237,133.241413 381.098049,48.6892632 268.652649,48.6892632 C158.67808,48.6892632 67.5933801,129.566405 51.6323218,235.086916 M49.8243043,285.488122 C58.6449296,398.62844 153.248154,487.689263 268.652649,487.689263 C384.116435,487.689263 478.757572,398.536902 487.494521,285.313717" id="Shape" stroke-width="11" stroke-linecap="round" transform="translate(268.659413, 268.189263) rotate(75.000000) translate(-268.659413, -268.189263) "></path>
            </g>
        </g>
    </g>
</svg>