<?xml version="1.0" encoding="UTF-8"?>
<svg width="251px" height="267px" viewBox="0 0 251 267" version="1.1" xmlns="http://www.w3.org/2000/svg" xmlns:xlink="http://www.w3.org/1999/xlink">
    <!-- Generator: Sketch 52.5 (67469) - http://www.bohemiancoding.com/sketch -->
    <title>Group 6</title>
    <desc>Created with Sketch.</desc>
    <g id="Page-2" stroke="none" stroke-width="1" fill="none" fill-rule="evenodd">
        <g id="Group-6" stroke="#000000">
            <g id="Document" fill="#FFFFFF" stroke-width="3">
                <path d="M3.08116218,39.7682144 C2.05277535,41.2092531 1.5,42.9354338 1.5,44.7057931 L1.5,256.924408 C1.5,261.618829 5.30557963,265.424408 10,265.424408 L163.71847,265.424408 C168.412891,265.424408 172.21847,261.618829 172.21847,256.924408 L172.21847,10 C172.21847,5.30557963 168.412891,1.5 163.71847,1.5 L34.7675388,1.5 C32.021177,1.5 29.4440395,2.82693523 27.848701,5.06242131 L3.08116218,39.7682144 Z" id="Rectangle"></path>
            </g>
            <path d="M31.5,61.5 L145.5,61.5" id="Line-7" stroke-width="3" stroke-linecap="square"></path>
            <path d="M31.5,92.5 L145.5,92.5" id="Line-7" stroke-width="3" stroke-linecap="square"></path>
            <path d="M31.5,124.5 L145.5,124.5" id="Line-7" stroke-width="3" stroke-linecap="square"></path>
            <path d="M31.5,155.5 L145.5,155.5" id="Line-7" stroke-width="3" stroke-linecap="square"></path>
            <path d="M31.5,187.5 L145.5,187.5" id="Line-7" stroke-width="3" stroke-linecap="square"></path>
            <path d="M31.5,218.5 L145.5,218.5" id="Line-7" stroke-width="3" stroke-linecap="square"></path>
            <path d="M122.377904,169.937442 C102.047716,153.537471 97.4553358,123.353834 112.120534,102.520401 C126.785733,81.6869687 155.155098,78.0929379 175.485285,94.4929089 C195.815472,110.89288 200.407853,141.076517 185.742654,161.90995 C171.077456,182.743383 142.708091,186.337414 122.377904,169.937442 Z M194.10657,157.970428 L268.946413,209.106328 C270.994994,210.506064 271.65294,213.349692 270.415977,215.457749 C270.41031,215.467407 270.404608,215.47704 270.39887,215.486649 L260.973643,231.269939 C259.721166,233.367311 257.05279,233.919918 255.013657,232.504221 C254.819457,232.369395 254.63497,232.219019 254.461914,232.054493 L187.052961,167.968466 C185.342969,166.342768 185.040559,163.655182 186.357167,161.784803 L188.351505,158.951641 C189.6709,157.077303 192.174676,156.650421 194.10657,157.970428 Z" id="Oval-2" stroke-width="4" fill-opacity="0.586758379" fill="#D8D8D8" transform="translate(187.289853, 158.747098) rotate(19.000000) translate(-187.289853, -158.747098) "></path>
        </g>
    </g>
</svg>