<?xml version="1.0" encoding="UTF-8"?>
<svg width="384px" height="269px" viewBox="0 0 384 269" version="1.1" xmlns="http://www.w3.org/2000/svg" xmlns:xlink="http://www.w3.org/1999/xlink">
    <!-- Generator: Sketch 52.5 (67469) - http://www.bohemiancoding.com/sketch -->
    <title>Logo, Earth Archive</title>
    <desc>Created with Sketch.</desc>
    <defs>
        <rect id="path-1" x="0" y="0" width="384" height="269"></rect>
    </defs>
    <g id="Logo,-Earth-Archive" stroke="none" stroke-width="1" fill="none" fill-rule="evenodd">
        <mask id="mask-2" fill="white">
            <use xlink:href="#path-1"></use>
        </mask>
        <g id="Background"></g>
        <path d="M34,58.5216375 L34,229 L300,229 L300,18 C274.031888,18 273.025456,18 231.851546,18 C227.263051,18 224.20808,21.0187599 219.935444,28.8563482 C219.576537,29.5147161 216.462398,35.4268991 215.447975,37.2381254 C211.822688,43.7109836 208.403763,48.2300049 203.932681,51.7598839 C198.323579,56.1882201 191.485048,58.5216375 182.978159,58.5216375 C139.537035,58.5216375 139.265339,58.5216375 34.0000434,58.5216375 Z" id="Rectangle" stroke="#646464" stroke-width="4" fill="#FFFFFF" mask="url(#mask-2)"></path>
        <circle id="Oval" stroke="#3D3D3D" stroke-width="5" fill="#FFFFFF" mask="url(#mask-2)" cx="161" cy="114" r="105"></circle>
        <path d="M208.277486,54.590787 C195.760099,67.048173 188.067346,74.5154091 168.92435,69.1269838 C162.377876,67.2842634 166.349755,57.6654057 158.855021,60.4378838 C140.078578,67.383731 148.417893,93.4079479 161.829913,101.382662 C187.567391,116.686028 177.290924,92.9113838 183.620617,125.483816" id="Path" stroke="#3D3D3D" stroke-width="5" stroke-linecap="round" mask="url(#mask-2)"></path>
        <path d="M207.896754,54.1582213 C208.828925,55.0095728 210.253195,50.9565136 209.966137,50.8511082 C207.50206,49.946318 201.961006,52.3074761 199.790551,50.8511082 C180.670617,38.0216968 214.82711,49.9372708 217.15063,43.0348444 C222.356063,27.571187 211.950949,30.4894276 221.732265,29" id="Path-2" stroke="#3D3D3D" stroke-width="5" stroke-linecap="round" mask="url(#mask-2)"></path>
        <path d="M249.245164,64.7114592 C221.276686,71.9678366 231.764274,108.191596 249.145498,118.395419 C251.047863,119.512222 257.620987,120.650172 255.635896,119.688062 C254.846594,119.305513 219.85205,102.245734 216.457931,113.569148 C215.429762,116.999312 216.457931,120.731036 216.457931,124.31198" id="Path-3" stroke="#3D3D3D" stroke-width="5" stroke-linecap="round" mask="url(#mask-2)"></path>
        <path d="M66.5704697,68.7385731 C81.049383,72.2313006 114.355911,84.171018 129.069862,76.5596827 C133.731009,74.1485322 129.767288,65.8806962 128.329914,60.8335293 C125.332987,50.3101723 122.331997,39.3153115 115.935036,30.4382905 C112.377955,25.5021541 120.362156,42.3700649 119.347855,48.3691861 C118.946027,50.7458161 114.888734,50.3417453 112.507115,50.7128571 C109.806429,51.1336868 106.963414,51.3576694 104.307286,50.7128571 C102.882447,50.3669573 101.579215,49.2130709 100.924668,47.9010559 C97.384145,40.8042035 112.284734,36.0214961 116.043763,35.596783 C146.264272,32.1823241 155.930077,43.8508012 144.077209,11.5107308" id="Path" stroke="#3D3D3D" stroke-width="5" stroke-linecap="round" mask="url(#mask-2)"></path>
        <path d="M57.0617504,107.145194 C68.6256812,108.104594 85.2551645,108.443134 90.6161056,121.678941 C97.7744187,139.352341 95.4387192,154.678616 72.8525985,154.073703 C72.282507,154.058434 72.4473082,152.006426 72.8525985,152.399135 L82.396693,150.758933 C86.6092648,154.84073 86.2356109,161.737349 88.1550698,167.226557" id="Path-5" stroke="#3D3D3D" stroke-width="5" stroke-linecap="round" mask="url(#mask-2)"></path>
        <path d="M110.51517,126 C110.193415,126 109.891315,126.154819 109.703412,126.416006 L37.0421778,227.416006 C36.9197839,227.586135 36.8539361,227.790419 36.8539361,228 C36.8539361,228.552285 37.3016513,229 37.8539361,229 L300.650802,229 C300.984204,229 301.295678,228.833841 301.481361,228.556931 L369.206883,127.556931 C369.317345,127.392199 369.376325,127.198339 369.376325,127 C369.376325,126.447715 368.928609,126 368.376325,126 L110.51517,126 Z" id="Rectangle" stroke="#646464" stroke-width="4" fill="#FFFFFF" mask="url(#mask-2)"></path>
    </g>
</svg>