<?xml version="1.0" encoding="UTF-8" standalone="no"?>
<!DOCTYPE svg PUBLIC "-//W3C//DTD SVG 1.1//EN" "http://www.w3.org/Graphics/SVG/1.1/DTD/svg11.dtd">
<svg width="100%" height="100%" viewBox="0 0 119 119" version="1.1" xmlns="http://www.w3.org/2000/svg" xmlns:xlink="http://www.w3.org/1999/xlink" xml:space="preserve" xmlns:serif="http://www.serif.com/" style="fill-rule:evenodd;clip-rule:evenodd;stroke-linejoin:round;stroke-miterlimit:1.41421;">
    <g transform="matrix(1,0,0,1,-91,-43.5)">
        <circle cx="142" cy="95.8" r="7.2" style="fill:rgb(253,183,48);"/>
    </g>
    <g transform="matrix(1,0,0,1,-91,-43.5)">
        <circle cx="131.1" cy="82.8" r="7" style="fill:rgb(143,197,77);"/>
    </g>
    <g transform="matrix(1,0,0,1,-91,-43.5)">
        <circle cx="122.4" cy="69.9" r="6" style="fill:rgb(143,197,77);"/>
    </g>
    <g transform="matrix(1,0,0,1,-91,-43.5)">
        <circle cx="154.9" cy="108.9" r="7.2" style="fill:rgb(22,94,158);"/>
    </g>
    <g transform="matrix(1,0,0,1,-91,-43.5)">
        <circle cx="168.2" cy="122" r="7.2" style="fill:rgb(22,94,158);"/>
    </g>
    <g transform="matrix(0.5,-0.866,0.866,0.5,-112.548,179.832)">
        <ellipse cx="182.6" cy="130.3" rx="6.2" ry="5.4" style="fill:rgb(22,94,158);"/>
    </g>
    <g transform="matrix(0.8373,-0.5468,0.5468,0.8373,-104.141,30.6782)">
        <ellipse cx="118.1" cy="59.2" rx="6.6" ry="4" style="fill:rgb(143,197,77);"/>
    </g>
    <g transform="matrix(0.5,-0.866,0.866,0.5,-100.624,86.6246)">
        <ellipse cx="107.9" cy="73.4" rx="6.6" ry="4.8" style="fill:rgb(143,197,77);"/>
    </g>
    <g transform="matrix(1,0,0,1,-91,-43.5)">
        <ellipse cx="114.3" cy="86.4" rx="6" ry="7" style="fill:rgb(143,197,77);"/>
    </g>
    <g transform="matrix(1,0,0,1,-91,-43.5)">
        <ellipse cx="101.2" cy="90.9" rx="4.5" ry="7" style="fill:rgb(143,197,77);"/>
    </g>
    <g transform="matrix(1,0,0,1,-91,-43.5)">
        <ellipse cx="124.7" cy="100.1" rx="7" ry="7.5" style="fill:rgb(143,197,77);"/>
    </g>
    <g transform="matrix(0.9816,-0.1911,0.1911,0.9816,-108.851,-20.6629)">
        <ellipse cx="109.5" cy="104" rx="5.3" ry="7.2" style="fill:rgb(143,197,77);"/>
    </g>
    <g transform="matrix(0.9816,-0.1911,0.1911,0.9816,-109.832,-22.6608)">
        <ellipse cx="98.6" cy="108" rx="3.7" ry="6.6" style="fill:rgb(143,197,77);"/>
    </g>
    <g transform="matrix(0.8,-0.6,0.6,0.8,-132.011,61.7055)">
        <ellipse cx="137.3" cy="114.1" rx="6.7" ry="8" style="fill:rgb(22,94,158);"/>
    </g>
    <g transform="matrix(0.8,-0.6,0.6,0.8,-137.313,52.3678)">
        <ellipse cx="120.6" cy="117.4" rx="5.8" ry="8" style="fill:rgb(143,197,77);"/>
    </g>
    <g transform="matrix(0.9478,-0.3189,0.3189,0.9478,-123.841,-2.8219)">
        <ellipse cx="107.8" cy="120.6" rx="4.6" ry="6.8" style="fill:rgb(143,197,77);"/>
    </g>
    <g transform="matrix(0.9478,-0.3189,0.3189,0.9478,-125.412,-5.6321)">
        <ellipse cx="98.5" cy="124" rx="2.9" ry="5.7" style="fill:rgb(143,197,77);"/>
    </g>
    <g transform="matrix(0.8,-0.6,0.6,0.8,-146.842,54.1147)">
        <ellipse cx="118.5" cy="132.6" rx="4.6" ry="7.3" style="fill:rgb(22,94,158);"/>
    </g>
    <g transform="matrix(0.4602,-0.8878,0.8878,0.4602,-148.521,150.82)">
        <ellipse cx="131" cy="144.5" rx="4.6" ry="7.3" style="fill:rgb(22,94,158);"/>
    </g>
    <g transform="matrix(0.5699,-0.8217,0.8217,0.5699,-140.758,122.352)">
        <ellipse cx="133.6" cy="130.5" rx="5.8" ry="8" style="fill:rgb(22,94,158);"/>
    </g>
    <g transform="matrix(0.352,-0.936,0.936,0.352,-128.156,187.446)">
        <ellipse cx="148.2" cy="142.3" rx="5.5" ry="7.6" style="fill:rgb(22,94,158);"/>
    </g>
    <g transform="matrix(0.4602,-0.8878,0.8878,0.4602,-121.75,159.423)">
        <ellipse cx="151.5" cy="126.7" rx="6.7" ry="8" style="fill:rgb(22,94,158);"/>
    </g>
    <g transform="matrix(0.9989,-0.0458718,0.0458718,0.9989,-97.1457,-35.7434)">
        <ellipse cx="165.9" cy="137.8" rx="7.1" ry="5.9" style="fill:rgb(22,94,158);"/>
    </g>
    <g transform="matrix(0.9897,-0.1434,0.1434,0.9897,-111.056,-18.7862)">
        <ellipse cx="161.5" cy="151.5" rx="7" ry="5.1" style="fill:rgb(22,94,158);"/>
    </g>
    <g transform="matrix(0.9349,-0.3549,0.3549,0.9349,-130.919,29.2158)">
        <ellipse cx="178.3" cy="145.2" rx="7.1" ry="4.5" style="fill:rgb(22,94,158);"/>
    </g>
    <g transform="matrix(0.5,-0.866,0.866,0.5,-111.907,191.436)">
        <ellipse cx="193" cy="135.6" rx="6.8" ry="4.1" style="fill:rgb(22,94,158);"/>
    </g>
    <g transform="matrix(1,0,0,1,-91,-43.5)">
        <ellipse cx="139.1" cy="68.1" rx="6.6" ry="5.6" style="fill:rgb(143,197,77);"/>
    </g>
    <g transform="matrix(1,0,0,1,-91,-43.5)">
        <ellipse cx="155.8" cy="67.2" rx="5.8" ry="4.9" style="fill:rgb(253,183,48);"/>
    </g>
    <g transform="matrix(0.866,-0.5,0.5,0.866,-101.89,30.8127)">
        <ellipse cx="133.2" cy="57.5" rx="6.2" ry="5.1" style="fill:rgb(143,197,77);"/>
    </g>
    <g transform="matrix(1,0,0,1,-91,-43.5)">
        <ellipse cx="149.6" cy="57.6" rx="6.2" ry="4" style="fill:rgb(253,183,48);"/>
    </g>
    <g transform="matrix(1,0,0,1,-91,-43.5)">
        <ellipse cx="146.6" cy="49.4" rx="6.2" ry="3.2" style="fill:rgb(253,183,48);"/>
    </g>
    <g transform="matrix(0.2826,-0.9592,0.9592,0.2826,-61.7533,155.96)">
        <ellipse cx="148" cy="80.2" rx="6.2" ry="7.1" style="fill:rgb(253,183,48);"/>
    </g>
    <g transform="matrix(0.5,-0.866,0.866,0.5,-91.4006,140.525)">
        <ellipse cx="159.2" cy="92.4" rx="6.4" ry="7.1" style="fill:rgb(253,183,48);"/>
    </g>
    <g transform="matrix(0.8,-0.6,0.6,0.8,-119.124,80.0388)">
        <ellipse cx="171.2" cy="104" rx="6.4" ry="7.1" style="fill:rgb(253,183,48);"/>
    </g>
    <g transform="matrix(0.8,-0.6,0.6,0.8,-122.282,89.7879)">
        <ellipse cx="184.3" cy="113.6" rx="5.8" ry="6.4" style="fill:rgb(22,94,158);"/>
    </g>
    <g transform="matrix(0.38,-0.925,0.925,0.38,-81.0234,211.235)">
        <ellipse cx="195" cy="119.9" rx="6.4" ry="4.5" style="fill:rgb(22,94,158);"/>
    </g>
    <g transform="matrix(1,0,0,1,-91,-43.5)">
        <ellipse cx="164.6" cy="77.4" rx="5.8" ry="5.4" style="fill:rgb(253,183,48);"/>
    </g>
    <g transform="matrix(1,0,0,1,-91,-43.5)">
        <circle cx="174" cy="87.5" r="5.8" style="fill:rgb(253,183,48);"/>
    </g>
    <g transform="matrix(1,0,0,1,-91,-43.5)">
        <ellipse cx="185.2" cy="96.3" rx="5.4" ry="6.3" style="fill:rgb(253,183,48);"/>
    </g>
    <g transform="matrix(1,0,0,1,-91,-43.5)">
        <ellipse cx="194.9" cy="103" rx="4.4" ry="6.3" style="fill:rgb(22,94,158);"/>
    </g>
    <g transform="matrix(0.1279,-0.9918,0.9918,0.1279,-19.366,251.511)">
        <ellipse cx="203.6" cy="106.8" rx="6.3" ry="3.4" style="fill:rgb(22,94,158);"/>
    </g>
    <g transform="matrix(0.2056,-0.9786,0.9786,0.2056,-127.27,219.516)">
        <ellipse cx="143.9" cy="153.8" rx="4" ry="7.6" style="fill:rgb(22,94,158);"/>
    </g>
    <g transform="matrix(0.7586,-0.6516,0.6516,0.7586,-156.825,67.7649)">
        <ellipse cx="117.2" cy="144.5" rx="3.5" ry="5.6" style="fill:rgb(22,94,158);"/>
    </g>
    <g transform="matrix(0.8,-0.6,0.6,0.8,-150.07,47.7084)">
        <ellipse cx="107.3" cy="134.2" rx="3.4" ry="5.3" style="fill:rgb(143,197,77);"/>
    </g>
    <g transform="matrix(0.3081,-0.9513,0.9513,0.3081,-148.322,184.42)">
        <ellipse cx="128" cy="153.4" rx="3.6" ry="5.9" style="fill:rgb(22,94,158);"/>
    </g>
    <g transform="matrix(1,0,0,1,-91,-43.5)">
        <ellipse cx="186" cy="81" rx="4.2" ry="5" style="fill:rgb(253,183,48);"/>
    </g>
    <g transform="matrix(1,0,0,1,-91,-43.5)">
        <ellipse cx="193.9" cy="87.3" rx="3.8" ry="5.6" style="fill:rgb(253,183,48);"/>
    </g>
    <g transform="matrix(0.9964,-0.0852151,0.0852151,0.9964,-98.0243,-26.048)">
        <ellipse cx="200.9" cy="91" rx="2.6" ry="6" style="fill:rgb(253,183,48);"/>
    </g>
    <g transform="matrix(0.9879,-0.1553,0.1553,0.9879,-102.847,-10.3493)">
        <ellipse cx="206.2" cy="92.4" rx="1.8" ry="6" style="fill:rgb(253,183,48);"/>
    </g>
    <g transform="matrix(1,0,0,1,-91,-43.5)">
        <ellipse cx="178.2" cy="73.9" rx="4.4" ry="4.7" style="fill:rgb(253,183,48);"/>
    </g>
    <g transform="matrix(0.0721037,-0.9974,0.9974,0.0721037,7.3943,166.25)">
        <ellipse cx="161.9" cy="52" rx="2.6" ry="6" style="fill:rgb(253,183,48);"/>
    </g>
    <g transform="matrix(0.0721037,-0.9974,0.9974,0.0721037,4.2425,176.243)">
        <ellipse cx="165.7" cy="58.7" rx="2.8" ry="5.8" style="fill:rgb(253,183,48);"/>
    </g>
    <g transform="matrix(0.9899,-0.1417,0.1417,0.9899,-98.6538,-18.5608)">
        <ellipse cx="171.3" cy="66.2" rx="5.1" ry="3.8" style="fill:rgb(253,183,48);"/>
    </g>
    <g transform="matrix(0.1579,-0.9874,0.9874,0.1579,-1.7272,154.078)">
        <ellipse cx="160.5" cy="46.4" rx="1.7" ry="6.2" style="fill:rgb(253,183,48);"/>
    </g>
    <g transform="matrix(1,0,0,1,-91,-43.5)">
        <path d="M189.9,71.4C189.2,72.8 187.6,73.4 186.3,72.8C185,72.2 184.5,70.5 185.1,69.1C185.7,67.7 188.4,65.1 189.7,65.8C191.1,66.4 190.6,70 189.9,71.4Z" style="fill:rgb(253,183,48);fill-rule:nonzero;"/>
    </g>
    <g transform="matrix(1,0,0,1,-91,-43.5)">
        <path d="M183.8,67.7C182.4,68.4 180.8,67.9 180.1,66.6C179.5,65.3 180,63.7 181.4,63C182.8,62.3 186.4,61.9 187.1,63.2C187.7,64.4 185.2,67 183.8,67.7Z" style="fill:rgb(253,183,48);fill-rule:nonzero;"/>
    </g>
    <g transform="matrix(1,0,0,1,-91,-43.5)">
        <path d="M195,74.4C195,76.2 194.1,77.7 193,77.7C191.9,77.7 191,76.2 191,74.4C191,72.6 192,68.5 193.1,68.5C194.1,68.5 195,72.6 195,74.4Z" style="fill:rgb(253,183,48);fill-rule:nonzero;"/>
    </g>
    <g transform="matrix(1,0,0,1,-91,-43.5)">
        <path d="M199.2,77.6C199.4,79.8 198.9,81.6 197.9,81.7C196.9,81.8 196,80.1 195.7,78C195.5,75.8 195.7,70.9 196.7,70.8C197.7,70.6 199,75.4 199.2,77.6Z" style="fill:rgb(253,183,48);fill-rule:nonzero;"/>
    </g>
    <g transform="matrix(1,0,0,1,-91,-43.5)">
        <path d="M202.3,79C203,81.3 203,83.2 202.4,83.4C201.8,83.6 200.7,81.9 200.1,79.7C199.4,77.4 198.4,72.3 199,72.1C199.6,71.9 201.7,76.8 202.3,79Z" style="fill:rgb(253,183,48);fill-rule:nonzero;"/>
    </g>
    <g transform="matrix(1,0,0,1,-91,-43.5)">
        <path d="M178.4,61.6C176.6,61.7 175,60.9 175,59.8C175,58.8 176.4,57.9 178.3,57.8C180.2,57.7 184.3,58.5 184.3,59.5C184.3,60.6 180.2,61.6 178.4,61.6Z" style="fill:rgb(253,183,48);fill-rule:nonzero;"/>
    </g>
    <g transform="matrix(1,0,0,1,-91,-43.5)">
        <path d="M174.9,57.4C172.8,57.3 171.2,56.3 171.2,55.3C171.3,54.3 173,53.5 175.1,53.7C177.2,53.8 181.8,55 181.7,56.1C181.8,57.1 177,57.6 174.9,57.4Z" style="fill:rgb(253,183,48);fill-rule:nonzero;"/>
    </g>
    <g transform="matrix(1,0,0,1,-91,-43.5)">
        <path d="M173.2,52.7C170.9,52 169.3,50.8 169.5,50C169.7,49.2 171.8,49.1 174,49.8C176.3,50.5 181.1,52.7 180.9,53.5C180.7,54.3 175.4,53.4 173.2,52.7Z" style="fill:rgb(253,183,48);fill-rule:nonzero;"/>
    </g>
    <g transform="matrix(1,0,0,1,-91,-43.5)">
        <path d="M107.2,65.4C109.1,63.1 110,60.6 109.7,59.3C106.5,62.3 103.7,65.5 101.2,69.1C102.5,69.7 105,68.1 107.2,65.4Z" style="fill:rgb(143,197,77);fill-rule:nonzero;"/>
    </g>
    <g transform="matrix(1,0,0,1,-91,-43.5)">
        <path d="M94.5,86.6C96,87 98,84.3 99,80.7C99.8,77.7 99.6,75 98.7,73.8C96.6,77.5 94.8,81.5 93.6,85.7C93.8,86.2 94.1,86.5 94.5,86.6Z" style="fill:rgb(143,197,77);fill-rule:nonzero;"/>
        <path d="M92.2,104C93.8,104 95.2,101.1 95.2,97.5C95.2,93.9 93.9,91 92.2,91C91.4,94.9 91,98.9 91,103.1C91,103.2 91,103.3 91,103.4C91.3,103.7 91.8,104 92.2,104Z" style="fill:rgb(143,197,77);fill-rule:nonzero;"/>
        <path d="M94.2,113.6C93.7,110.5 92.4,108.1 91.2,108C91.5,112 92.3,115.8 93.3,119.5C94.2,118.7 94.5,116.3 94.2,113.6Z" style="fill:rgb(143,197,77);fill-rule:nonzero;"/>
        <path d="M98.6,132.1C99.9,134.3 101.3,136.5 102.8,138.5C102.7,137.7 102.4,136.7 101.9,135.6C101,133.6 99.6,132.2 98.6,132.1Z" style="fill:rgb(143,197,77);fill-rule:nonzero;"/>
    </g>
    <g transform="matrix(1,0,0,1,-91,-43.5)">
        <path d="M209,101.8C208.3,102.8 207.7,104.8 207.4,107.2C207,110.3 207.3,112.9 208,113.5C208.7,109.9 209,106.3 209,102.5C209.1,102.3 209,102.1 209,101.8Z" style="fill:rgb(22,94,158);fill-rule:nonzero;"/>
        <path d="M206.1,115.8C204.5,115.2 202.2,117.3 200.8,120.5C199.5,123.8 199.6,126.9 201.2,127.6C202,127.9 202.9,127.6 203.8,126.8C205.2,123.8 206.3,120.6 207.1,117.3C207,116.5 206.7,116 206.1,115.8Z" style="fill:rgb(22,94,158);fill-rule:nonzero;"/>
        <path d="M171.4,153.6C167.7,155 165.3,157.4 165.8,158.9C165.9,159.1 166,159.2 166.1,159.4C170.7,158.1 175,156.3 179.1,154L179.1,153.9C178.5,152.3 175,152.2 171.4,153.6Z" style="fill:rgb(22,94,158);fill-rule:nonzero;"/>
        <path d="M154.7,157.9C151,158.1 148.1,159.5 148.2,161.1C148.2,161.3 148.3,161.5 148.4,161.7C148.9,161.7 149.5,161.7 150,161.7C153.9,161.7 157.8,161.3 161.5,160.6L161.5,160.5C161.4,158.8 158.4,157.7 154.7,157.9Z" style="fill:rgb(22,94,158);fill-rule:nonzero;"/>
        <path d="M116.3,150.2C115.3,149.6 114.3,149.2 113.5,149C115.5,150.5 117.5,152 119.6,153.2C119.3,152.4 118,151.2 116.3,150.2Z" style="fill:rgb(22,94,158);fill-rule:nonzero;"/>
        <path d="M138.7,158.6C136,158.1 133.6,158.3 132.7,159.1C136.4,160.2 140.3,161 144.2,161.4C143.9,160.3 141.6,159.1 138.7,158.6Z" style="fill:rgb(22,94,158);fill-rule:nonzero;"/>
        <path d="M108.6,142.6C107.2,141.2 105.6,140.3 104.5,140.3C106.4,142.6 108.5,144.8 110.8,146.8C111,145.8 110.1,144.1 108.6,142.6Z" style="fill:rgb(22,94,158);fill-rule:nonzero;"/>
        <path d="M186.5,145.8C183.9,147.9 182.4,150.4 182.7,151.8C186.4,149.3 189.8,146.5 192.8,143.3C191.5,142.9 188.9,143.9 186.5,145.8Z" style="fill:rgb(22,94,158);fill-rule:nonzero;"/>
        <path d="M152.3,43.6C151.5,43.6 150.8,43.5 150,43.5C146.8,43.5 143.6,43.8 140.5,44.3C141.5,45 143.6,45.4 146.1,45.4C149.3,45.4 152,44.6 152.3,43.6Z" style="fill:rgb(253,183,48);fill-rule:nonzero;"/>
        <path d="M205.8,83.5C204.7,79.8 203.1,76.4 201.2,73.1C201.5,74.8 202.6,78.1 203.2,79.8C204.1,82.1 205.3,83.7 205.8,83.5Z" style="fill:rgb(253,183,48);fill-rule:nonzero;"/>
        <path d="M173.5,49.4C174.9,50 177.6,50.9 179.3,51.4C176.3,49.7 173.1,48.2 169.7,47L169.7,47.1C169.6,47.4 171.3,48.5 173.5,49.4Z" style="fill:rgb(253,183,48);fill-rule:nonzero;"/>
    </g>
    <g transform="matrix(1,0,0,1,-91,-43.5)">
        <path d="M187.8,57.1C187.3,56.9 186.9,56.6 186.6,56.5C186.5,56.4 186.4,56.4 186.3,56.3C186.5,56.5 186.7,56.6 186.9,56.8C187,56.8 187,56.8 187.1,56.9C187.3,56.9 187.5,57 187.8,57.1Z" style="fill:none;"/>
        <path d="M190.1,57.2C190,57.1 190,57.1 189.9,57L190.1,57.2Z" style="fill:none;"/>
        <path d="M196.8,67.1C197.6,68.8 198.5,70 198.8,69.9C198.9,69.9 198.9,69.8 198.9,69.7C198.2,68.6 197.4,67.6 196.6,66.6C196.7,66.8 196.7,67 196.8,67.1Z" style="fill:rgb(253,183,48);fill-rule:nonzero;"/>
        <path d="M186.3,56.3C185.5,55.7 184.7,55.1 183.8,54.5C184.2,54.9 185.1,55.6 186.3,56.3Z" style="fill:rgb(253,183,48);fill-rule:nonzero;"/>
        <path d="M186.9,56.8C185.3,56.2 183.9,56 183.8,56.3C183.7,56.6 184.9,57.4 186.6,58C187,58.2 187.6,58.3 188.2,58.5C188,58.5 187.7,58.4 187.5,58.4C186,58.2 184.7,58.4 184.7,58.7C184.7,59.1 185.9,59.5 187.4,59.6C187.8,59.6 188.4,59.7 189,59.7C188.8,59.7 188.7,59.7 188.5,59.8C187.2,60 186.3,60.5 186.3,60.8C186.4,61.2 187.4,61.3 188.7,61C189.3,60.9 190.2,60.7 190.9,60.5C190.4,60.8 190,61.2 189.7,61.5C189,62.2 188.7,63.1 189,63.5C189.4,63.8 190.2,63.5 190.9,62.8C191.1,62.6 191.3,62.3 191.5,62C191.4,62.6 191.3,63.1 191.2,63.5C191.1,64.7 191.4,65.8 191.9,65.8C192.4,65.8 192.8,64.9 193,63.8C193.1,64.3 193.1,64.8 193.2,65.1C193.5,66.7 194,68 194.4,67.9C194.7,67.8 194.8,66.9 194.7,65.7C194.7,65.8 194.8,66 194.8,66.1C195.3,67.8 196,69.1 196.3,69C196.6,68.9 196.5,67.5 196.1,65.9C193.5,62.7 190.3,59.6 186.9,56.8Z" style="fill:rgb(253,183,48);fill-rule:nonzero;"/>
    </g>
    <g transform="matrix(1,0,0,1,-91,-43.5)">
        <path d="M125.4,50.5C125.9,52 128.9,52.4 132.2,51.3C135.5,50.3 137.8,48.2 137.3,46.7C137,45.8 135.9,45.3 134.3,45.3C131.6,46 129,46.9 126.5,48C125.6,48.9 125.1,49.8 125.4,50.5Z" style="fill:rgb(143,197,77);fill-rule:nonzero;"/>
    </g>
</svg>
