<?xml version="1.0" encoding="UTF-8" standalone="no"?>
<!DOCTYPE svg PUBLIC "-//W3C//DTD SVG 1.1//EN" "http://www.w3.org/Graphics/SVG/1.1/DTD/svg11.dtd">
<svg width="100%" height="100%" viewBox="0 0 250 208" version="1.1" xmlns="http://www.w3.org/2000/svg" xmlns:xlink="http://www.w3.org/1999/xlink" xml:space="preserve" xmlns:serif="http://www.serif.com/" style="fill-rule:evenodd;clip-rule:evenodd;stroke-linejoin:round;stroke-miterlimit:1.41421;">
    <g transform="matrix(1,0,0,1,-25.5,-43.5)">
        <path d="M64.7,186.7L64.7,188.9C65,188.3 66.2,187.4 66.9,187C67.7,186.5 68.8,186.3 69.8,186.3C72.3,186.3 74,186.9 75.4,188.8C77.5,191.4 77.5,195.9 77.5,201.9C77.5,207.9 77.5,212.4 75.4,215C73.9,216.9 72.2,217.5 69.8,217.5C68.8,217.5 67.8,217.2 66.9,216.8C66.2,216.4 65.6,215.9 65,215.3L65,226.9L57.5,226.9L57.5,186.8L64.7,186.8L64.7,186.7ZM65,208C65,209 65.2,209.6 65.7,210.1C66.1,210.6 66.7,210.8 67.3,210.8C68.1,210.8 68.8,210.5 69.2,209.7C69.7,208.9 69.9,207.1 69.9,201.9C69.9,196.7 69.7,194.9 69.2,194.1C68.7,193.4 68.1,193 67.3,193C66.6,193 66.1,193.2 65.7,193.7C65.2,194.2 65,194.8 65,195.8L65,208Z" style="fill:rgb(22,94,158);fill-rule:nonzero;"/>
        <path d="M88.5,204.3C88.5,206.3 88.6,208.7 89.1,209.5C89.4,210.2 90.1,210.7 91.1,210.7C92.1,210.7 92.7,210.3 93.1,209.6C93.4,209.1 93.5,208.2 93.5,207.7L101,207.7C100.9,210.2 100.2,212.8 98.2,214.9C96.5,216.8 94.2,217.5 91.1,217.5C88.2,217.5 86.1,217 84,214.9C81.2,212.1 81,206.5 81,202C81,197.4 81.2,191.9 84,189C86.1,186.8 88.6,186.4 91.1,186.4C93.7,186.4 96,186.8 98.1,189C100.9,191.9 101.1,197.4 101.1,204.4L88.5,204.4L88.5,204.3ZM93,194.2C92.6,193.5 92,193.1 91,193.1C90,193.1 89.4,193.5 89,194.2C88.7,194.8 88.4,196.3 88.4,198.9L93.5,198.9C93.6,196.3 93.4,194.8 93,194.2Z" style="fill:rgb(22,94,158);fill-rule:nonzero;"/>
        <path d="M117.7,217L117.7,195.8C117.7,193.9 116.7,193 115.3,193C113.9,193 112.9,193.9 112.9,195.8L112.9,217L105.4,217L105.4,186.7L112.6,186.7L112.6,188.9C113.2,188.2 114,187.4 114.8,187C115.6,186.5 116.7,186.3 117.7,186.3C120.5,186.3 122.1,187.1 123.6,188.8C124.8,190.3 125.3,191.9 125.3,195.7L125.3,217L117.7,217Z" style="fill:rgb(22,94,158);fill-rule:nonzero;"/>
        <path d="M145.1,217.5C140.8,217.5 138.1,215.7 136.3,213.4C133.5,210 133.3,204.7 133.3,197C133.3,189.3 133.5,184 136.3,180.6C138.1,178.3 140.7,176.5 145.1,176.5C148.5,176.5 151.1,177.6 153,179.5C155.1,181.6 156.3,184.8 156.4,188.5L148.4,188.5C148.3,186.8 148.1,183.8 145.1,183.8C143.6,183.8 142.8,184.5 142.4,185.4C141.4,187.3 141.3,192.3 141.3,197.1C141.3,201.9 141.4,207 142.4,208.8C142.9,209.7 143.6,210.4 145.1,210.4C147.7,210.4 148.4,207.9 148.4,205.7L148.4,201.5L145.1,201.5L145.1,195L156.4,195L156.4,205.2C156.4,213.2 152,217.5 145.1,217.5Z" style="fill:rgb(143,197,77);fill-rule:nonzero;"/>
        <path d="M167.7,204.3C167.7,206.3 167.8,208.7 168.3,209.5C168.6,210.2 169.3,210.7 170.3,210.7C171.3,210.7 171.9,210.3 172.3,209.6C172.6,209.1 172.7,208.2 172.7,207.7L180.2,207.7C180.1,210.2 179.4,212.8 177.4,214.9C175.7,216.8 173.4,217.5 170.2,217.5C167.3,217.5 165.2,217 163.1,214.9C160.3,212.1 160.1,206.5 160.1,201.9C160.1,197.3 160.3,191.8 163.1,188.9C165.2,186.7 167.7,186.3 170.2,186.3C172.8,186.3 175.1,186.7 177.2,188.9C180,191.8 180.2,197.3 180.2,204.3L167.7,204.3ZM172.2,194.2C171.8,193.5 171.2,193.1 170.2,193.1C169.2,193.1 168.6,193.5 168.2,194.2C167.9,194.8 167.6,196.3 167.6,198.9L172.7,198.9C172.8,196.3 172.6,194.8 172.2,194.2Z" style="fill:rgb(143,197,77);fill-rule:nonzero;"/>
        <path d="M201.9,213.9C199.9,216.8 197.1,217.5 193.9,217.5C190.7,217.5 187.9,216.8 185.9,213.9C184,211 183.8,206 183.8,201.9C183.8,197.8 184,192.8 185.9,189.9C187.9,187 190.7,186.3 193.9,186.3C197.1,186.3 199.9,187 201.9,189.9C203.8,192.8 204,197.8 204,201.9C204,206 203.8,211 201.9,213.9ZM195.8,194.2C195.4,193.4 194.6,193 193.8,193C193.1,193 192.2,193.3 191.8,194.2C191.2,195.4 191.2,198.4 191.2,201.9C191.2,205.3 191.2,208.3 191.8,209.6C192.2,210.4 193,210.8 193.8,210.8C194.5,210.8 195.4,210.5 195.8,209.6C196.4,208.4 196.4,205.4 196.4,201.9C196.4,198.5 196.4,195.5 195.8,194.2Z" style="fill:rgb(143,197,77);fill-rule:nonzero;"/>
        <path d="M50,180.6C48.2,178.3 45.6,176.5 41.2,176.5C36.9,176.5 34.2,178.3 32.4,180.6C32.2,180.8 32,181 31.9,181.3L39.1,184.5C39.6,184 40.2,183.7 41.2,183.7C42.7,183.7 43.5,184.4 43.9,185.3C44.9,187.2 45,192.2 45,197C45,201.8 44.9,206.9 43.9,208.7C43.4,209.6 42.7,210.3 41.2,210.3C39.7,210.3 38.9,209.6 38.5,208.7C37.5,206.8 37.4,201.8 37.4,197C37.4,195.4 37.4,193.8 37.5,192.3L40.8,193L34.7,183.8L25.5,190L29.5,190.8C29.4,192.7 29.4,194.8 29.4,197.1C29.4,204.8 29.6,210.1 32.4,213.5C34.2,215.8 36.8,217.6 41.2,217.6C45.5,217.6 48.2,215.8 50,213.5C52.8,210.1 53,204.8 53,197.1C53,189.4 52.8,184 50,180.6Z" style="fill:rgb(22,94,158);fill-rule:nonzero;"/>
        <path d="M223.6,207.8L223.6,194.7L218.4,194.7L218.4,207.8L212.2,207.8L212.2,176.5L218.4,176.5L218.4,189.1L223.6,189.1L223.6,176.5L229.8,176.5L229.8,207.8L223.6,207.8Z" style="fill:rgb(253,183,48);fill-rule:nonzero;"/>
        <path d="M249.8,205.6C248.1,207.3 245.9,208.2 243.3,208.2C240.7,208.2 238.5,207.3 236.8,205.6C235.3,204.1 234.5,201.9 234.5,199.4L234.5,176.5L240.7,176.5L240.7,199.7C240.7,201.7 241.9,202.5 243.3,202.5C244.7,202.5 245.9,201.7 245.9,199.7L245.9,176.5L252.1,176.5L252.1,199.4C252.1,201.9 251.3,204.1 249.8,205.6Z" style="fill:rgb(253,183,48);fill-rule:nonzero;"/>
        <path d="M272.4,205.8C271.1,207.2 269,207.9 265.9,207.9L256.8,207.9L256.8,176.6L265.9,176.6C269,176.6 271.1,177.3 272.5,178.6C274,180.1 274.6,181.7 274.6,185.1C274.6,187.3 274.2,189.1 272.9,190.4C272.5,190.8 272.1,191.1 271.4,191.5C272,191.8 272.5,192.2 272.9,192.6C274.2,194 274.6,195.7 274.6,198.8C274.5,202.2 273.9,204.1 272.4,205.8ZM265.1,182.1L263,182.1L263,188.8L265.1,188.8C267.5,188.8 268.2,187.7 268.2,185.5C268.2,183.2 267.6,182.1 265.1,182.1ZM265,194.1L263,194.1L263,202.2L265,202.2C267.5,202.2 268.2,201 268.2,198.2C268.2,195.4 267.4,194.1 265,194.1Z" style="fill:rgb(253,183,48);fill-rule:nonzero;"/>
        <rect x="211.1" y="212.8" width="63.4" height="5.2" style="fill:rgb(253,183,48);"/>
    </g>
    <g transform="matrix(1,0,0,1,-25.5,-43.5)">
        <g>
            <path d="M37.8,246.3C37.2,246.8 36.5,247.1 35.6,247.1C34.5,247.1 33.7,246.7 33.1,246C32.1,244.9 32,243.7 32,239.6C32,235.6 32.1,234.3 33.1,233.2C33.7,232.6 34.4,232.1 35.6,232.1C36.6,232.1 37.3,232.4 37.9,233C38.6,233.7 38.9,234.7 38.9,235.9L37.2,235.9C37.2,235.3 37.1,234.7 36.7,234.2C36.5,233.9 36.1,233.7 35.6,233.7C35,233.7 34.6,233.9 34.4,234.3C33.9,235 33.8,236.2 33.8,239.6C33.8,243 33.9,244.2 34.4,244.9C34.6,245.2 35,245.5 35.6,245.5C36.2,245.5 36.5,245.3 36.7,245C37,244.6 37.1,243.9 37.2,243.3L38.9,243.3C38.9,244.6 38.5,245.6 37.8,246.3Z" style="fill:rgb(22,94,158);fill-rule:nonzero;"/>
            <path d="M45.7,246.1C45.2,246.8 44.4,247.1 43.5,247.1C42.6,247.1 41.8,246.8 41.3,246.1C40.6,245.3 40.5,243.8 40.5,241.6C40.5,239.5 40.6,238 41.3,237.1C41.8,236.4 42.6,236.1 43.5,236.1C44.4,236.1 45.2,236.4 45.7,237.1C46.4,237.9 46.5,239.4 46.5,241.6C46.5,243.8 46.4,245.3 45.7,246.1ZM44.4,238.1C44.2,237.8 43.8,237.7 43.5,237.7C43.1,237.7 42.8,237.9 42.6,238.1C42.2,238.6 42.2,239.7 42.2,241.6C42.2,243.5 42.2,244.6 42.6,245.1C42.8,245.4 43.1,245.5 43.5,245.5C43.9,245.5 44.2,245.3 44.4,245.1C44.8,244.6 44.8,243.5 44.8,241.6C44.8,239.7 44.8,238.7 44.4,238.1Z" style="fill:rgb(22,94,158);fill-rule:nonzero;"/>
            <path d="M52.7,246.9L52.7,239.1C52.7,238.1 52.1,237.7 51.4,237.7C50.7,237.7 50.2,238.2 50.2,239.1L50.2,246.9L48.5,246.9L48.5,236.3L50.1,236.3L50.1,237.1C50.2,236.9 50.5,236.6 50.8,236.4C51.1,236.2 51.5,236.1 51.9,236.1C52.7,236.1 53.2,236.4 53.7,236.9C54.1,237.4 54.3,237.9 54.3,239.1L54.3,246.9L52.7,246.9Z" style="fill:rgb(22,94,158);fill-rule:nonzero;"/>
            <path d="M60.7,246.9L60.7,239.1C60.7,238.1 60.1,237.7 59.4,237.7C58.7,237.7 58.2,238.2 58.2,239.1L58.2,246.9L56.5,246.9L56.5,236.3L58.1,236.3L58.1,237.1C58.2,236.9 58.5,236.6 58.8,236.4C59.1,236.2 59.5,236.1 59.9,236.1C60.7,236.1 61.2,236.4 61.7,236.9C62.1,237.4 62.3,237.9 62.3,239.1L62.3,246.9L60.7,246.9Z" style="fill:rgb(22,94,158);fill-rule:nonzero;"/>
            <path d="M65.9,242C65.9,243.7 66,244.7 66.3,245.1C66.5,245.4 66.8,245.5 67.2,245.5C67.6,245.5 67.9,245.4 68.1,245.1C68.4,244.8 68.4,244.4 68.4,243.9L70.1,243.9C70.1,244.9 69.8,245.6 69.2,246.2C68.7,246.7 68,247 67.1,247C66.2,247 65.5,246.8 65,246.2C64.2,245.4 64.1,243.8 64.1,241.6C64.1,239.4 64.2,237.8 65,237C65.6,236.4 66.2,236.2 67.1,236.2C68,236.2 68.6,236.4 69.2,237C70,237.8 70.1,239.4 70.1,242L65.9,242ZM68.2,238.1C68,237.8 67.7,237.7 67.3,237.7C66.9,237.7 66.6,237.9 66.4,238.1C66.1,238.5 66,239.2 66,240.8L68.7,240.8C68.6,239.3 68.5,238.5 68.2,238.1Z" style="fill:rgb(22,94,158);fill-rule:nonzero;"/>
            <path d="M76.9,246.4C76.4,246.9 75.7,247.1 74.8,247.1C73.9,247.1 73.1,246.8 72.6,246.1C71.9,245.3 71.8,243.8 71.8,241.6C71.8,239.5 71.9,238 72.6,237.1C73.1,236.4 73.9,236.1 74.8,236.1C75.7,236.1 76.3,236.3 76.9,236.8C77.6,237.4 77.7,238.3 77.8,239.2L76.1,239.2C76.1,238.8 76.1,238.3 75.8,238C75.6,237.7 75.3,237.6 74.9,237.6C74.5,237.6 74.2,237.8 74,238C73.6,238.5 73.6,239.6 73.6,241.5C73.6,243.4 73.6,244.5 74,245C74.2,245.3 74.6,245.4 74.9,245.4C75.3,245.4 75.6,245.3 75.8,245C76.1,244.7 76.1,244.2 76.1,243.8L77.8,243.8C77.7,245 77.5,245.8 76.9,246.4Z" style="fill:rgb(22,94,158);fill-rule:nonzero;"/>
            <path d="M80.9,246.3C80.3,245.8 80,245 80,243.9L80,237.6L78.8,237.6L78.8,236.3L80,236.3L80,233.4L81.7,233.4L81.7,236.3L83.3,236.3L83.3,237.6L81.7,237.6L81.7,243.8C81.7,244.9 82.3,245.4 83.4,245.4L83.4,246.9C82.4,246.9 81.6,246.9 80.9,246.3Z" style="fill:rgb(22,94,158);fill-rule:nonzero;"/>
            <path d="M112.2,246.3C111.6,246.8 110.9,247.1 110,247.1C108.9,247.1 108.1,246.7 107.5,246C106.5,244.9 106.4,243.7 106.4,239.6C106.4,235.6 106.5,234.3 107.5,233.2C108.1,232.6 108.8,232.1 110,232.1C111,232.1 111.7,232.4 112.3,233C113,233.7 113.3,234.7 113.3,235.9L111.6,235.9C111.6,235.3 111.5,234.7 111.1,234.2C110.9,233.9 110.5,233.7 110,233.7C109.4,233.7 109,233.9 108.8,234.3C108.3,235 108.2,236.2 108.2,239.6C108.2,243 108.3,244.2 108.8,244.9C109,245.2 109.4,245.5 110,245.5C110.6,245.5 110.9,245.3 111.1,245C111.4,244.6 111.5,243.9 111.6,243.3L113.3,243.3C113.3,244.6 113,245.6 112.2,246.3Z" style="fill:rgb(22,94,158);fill-rule:nonzero;"/>
            <path d="M118.9,237.8C117.8,237.8 117,238.5 117,239.7L117,246.9L115.3,246.9L115.3,236.3L116.9,236.3L116.9,237.4C117.1,237.1 117.4,236.8 117.6,236.6C118.1,236.3 118.7,236.1 119.3,236.1L119.3,237.7L118.9,237.7L118.9,237.8Z" style="fill:rgb(22,94,158);fill-rule:nonzero;"/>
            <path d="M122,242C122,243.7 122.1,244.7 122.4,245.1C122.6,245.4 122.9,245.5 123.3,245.5C123.7,245.5 124,245.4 124.2,245.1C124.5,244.8 124.5,244.4 124.5,243.9L126.2,243.9C126.2,244.9 125.9,245.6 125.3,246.2C124.8,246.7 124.1,247 123.2,247C122.3,247 121.6,246.8 121.1,246.2C120.3,245.4 120.2,243.8 120.2,241.6C120.2,239.4 120.3,237.8 121.1,237C121.7,236.4 122.3,236.2 123.2,236.2C124.1,236.2 124.7,236.4 125.3,237C126.1,237.8 126.2,239.4 126.2,242L122,242ZM124.2,238.1C124,237.8 123.7,237.7 123.3,237.7C122.9,237.7 122.6,237.9 122.4,238.1C122.1,238.5 122,239.2 122,240.8L124.7,240.8C124.6,239.3 124.5,238.5 124.2,238.1Z" style="fill:rgb(22,94,158);fill-rule:nonzero;"/>
            <path d="M132.1,246.9L132.1,246C131.9,246.3 131.7,246.6 131.5,246.7C131.2,246.9 130.8,247.1 130.3,247.1C129.5,247.1 129,246.9 128.5,246.3C128.1,245.8 127.8,245 127.8,243.9C127.8,242.9 128.1,242.1 128.7,241.5C129.2,241 129.8,240.8 130.9,240.8L132,240.8L132,239.1C132,238.1 131.6,237.6 130.8,237.6C130.4,237.6 130.2,237.7 130,237.9C129.7,238.2 129.6,238.6 129.6,239.1L127.9,239.1C127.9,238.3 128.1,237.5 128.7,236.9C129.2,236.4 129.9,236.1 130.7,236.1C131.6,236.1 132.3,236.3 132.8,236.8C133.3,237.3 133.6,238 133.6,239.1L133.6,246.8L132.1,246.8L132.1,246.9ZM132,242L131,242C130.5,242 130.1,242.1 129.8,242.4C129.5,242.7 129.3,243.3 129.3,243.8C129.3,244.9 129.7,245.6 130.6,245.6C131.4,245.6 131.9,244.9 131.9,243.9L131.9,242L132,242Z" style="fill:rgb(22,94,158);fill-rule:nonzero;"/>
            <path d="M137.2,246.3C136.6,245.8 136.3,245 136.3,243.9L136.3,237.6L135.1,237.6L135.1,236.3L136.3,236.3L136.3,233.4L138,233.4L138,236.3L139.6,236.3L139.6,237.6L138,237.6L138,243.8C138,244.9 138.6,245.4 139.7,245.4L139.7,246.9C138.7,246.9 137.9,246.9 137.2,246.3Z" style="fill:rgb(22,94,158);fill-rule:nonzero;"/>
            <path d="M142.5,242C142.5,243.7 142.6,244.7 142.9,245.1C143.1,245.4 143.4,245.5 143.8,245.5C144.2,245.5 144.5,245.4 144.7,245.1C145,244.8 145,244.4 145,243.9L146.7,243.9C146.7,244.9 146.4,245.6 145.8,246.2C145.3,246.7 144.6,247 143.7,247C142.8,247 142.1,246.8 141.6,246.2C140.8,245.4 140.7,243.8 140.7,241.6C140.7,239.4 140.8,237.8 141.6,237C142.2,236.4 142.8,236.2 143.7,236.2C144.6,236.2 145.2,236.4 145.8,237C146.6,237.8 146.7,239.4 146.7,242L142.5,242ZM144.8,238.1C144.6,237.8 144.3,237.7 143.9,237.7C143.5,237.7 143.2,237.9 143,238.1C142.7,238.5 142.6,239.2 142.6,240.8L145.3,240.8C145.2,239.3 145.1,238.5 144.8,238.1Z" style="fill:rgb(22,94,158);fill-rule:nonzero;"/>
            <path d="M176.2,246.2C175.6,246.7 174.8,247.1 173.6,247.1C172.5,247.1 171.6,246.8 171,246.2C170.3,245.5 170.1,244.7 170.1,243.1L171.9,243.1C171.9,244.1 172,244.6 172.4,245C172.6,245.3 173.1,245.4 173.6,245.4C174.2,245.4 174.6,245.2 174.8,244.9C175.2,244.5 175.3,243.9 175.3,243C175.3,241.3 175.1,240.8 173.9,240.3L172.2,239.6C170.7,239 170.2,238.2 170.2,236C170.2,234.7 170.6,233.7 171.3,233C171.9,232.5 172.6,232.2 173.6,232.2C174.7,232.2 175.5,232.5 176,233C176.7,233.7 177,234.7 177,236L175.2,236C175.2,235.2 175.1,234.7 174.8,234.2C174.6,233.9 174.2,233.7 173.6,233.7C173.1,233.7 172.7,233.9 172.5,234.1C172.2,234.5 172,235.1 172,235.8C172,237.2 172.2,237.7 173.4,238.1L175,238.8C176.7,239.5 177,240.5 177,242.8C177.1,244.5 176.8,245.5 176.2,246.2Z" style="fill:rgb(22,94,158);fill-rule:nonzero;"/>
            <path d="M183.3,246.9L183.3,239.1C183.3,238.1 182.7,237.6 182,237.6C181.3,237.6 180.8,238.1 180.8,239.1L180.8,246.9L179.1,246.9L179.1,232.4L180.8,232.4L180.8,237.1C180.9,236.9 181.2,236.6 181.4,236.5C181.7,236.3 182.1,236.2 182.5,236.2C183.3,236.2 183.8,236.5 184.3,237C184.7,237.5 184.9,238 184.9,239.2L184.9,247L183.3,247L183.3,246.9Z" style="fill:rgb(22,94,158);fill-rule:nonzero;"/>
            <path d="M191,246.9L191,246C190.8,246.3 190.6,246.6 190.4,246.7C190.1,246.9 189.7,247.1 189.2,247.1C188.4,247.1 187.9,246.9 187.4,246.3C187,245.8 186.7,245 186.7,243.9C186.7,242.9 187,242.1 187.6,241.5C188.1,241 188.7,240.8 189.8,240.8L190.9,240.8L190.9,239.1C190.9,238.1 190.5,237.6 189.7,237.6C189.3,237.6 189.1,237.7 188.9,237.9C188.6,238.2 188.5,238.6 188.5,239.1L186.8,239.1C186.8,238.3 187,237.5 187.6,236.9C188.1,236.4 188.8,236.1 189.6,236.1C190.5,236.1 191.2,236.3 191.7,236.8C192.2,237.3 192.5,238 192.5,239.1L192.5,246.8L191,246.8L191,246.9ZM190.9,242L190,242C189.5,242 189.1,242.1 188.8,242.4C188.5,242.7 188.3,243.3 188.3,243.8C188.3,244.9 188.7,245.6 189.6,245.6C190.4,245.6 190.9,244.9 190.9,243.9L190.9,242Z" style="fill:rgb(22,94,158);fill-rule:nonzero;"/>
            <path d="M198.4,237.8C197.3,237.8 196.5,238.5 196.5,239.7L196.5,246.9L194.8,246.9L194.8,236.3L196.4,236.3L196.4,237.4C196.6,237.1 196.9,236.8 197.1,236.6C197.6,236.3 198.2,236.1 198.8,236.1L198.8,237.7L198.4,237.7L198.4,237.8Z" style="fill:rgb(22,94,158);fill-rule:nonzero;"/>
            <path d="M201.5,242C201.5,243.7 201.6,244.7 201.9,245.1C202.1,245.4 202.4,245.5 202.8,245.5C203.2,245.5 203.5,245.4 203.7,245.1C204,244.8 204,244.4 204,243.9L205.7,243.9C205.7,244.9 205.4,245.6 204.8,246.2C204.3,246.7 203.6,247 202.7,247C201.8,247 201.1,246.8 200.6,246.2C199.8,245.4 199.7,243.8 199.7,241.6C199.7,239.4 199.8,237.8 200.6,237C201.2,236.4 201.8,236.2 202.7,236.2C203.6,236.2 204.2,236.4 204.8,237C205.6,237.8 205.7,239.4 205.7,242L201.5,242ZM203.8,238.1C203.6,237.8 203.3,237.7 202.9,237.7C202.5,237.7 202.2,237.9 202,238.1C201.7,238.5 201.6,239.2 201.6,240.8L204.3,240.8C204.2,239.3 204.1,238.5 203.8,238.1Z" style="fill:rgb(22,94,158);fill-rule:nonzero;"/>
            <path d="M235.4,246.9L233.4,240.7L231.8,240.7L231.8,246.9L230,246.9L230,232.4L233.3,232.4C235.5,232.4 236.7,233.4 236.7,236.5C236.7,238.5 236.2,239.7 234.9,240.3L237.1,246.9L235.4,246.9ZM233.4,234L231.8,234L231.8,239.2L233.4,239.2C234.7,239.2 235.1,238.2 235.1,236.6C235.1,235 234.7,234 233.4,234Z" style="fill:rgb(22,94,158);fill-rule:nonzero;"/>
            <path d="M240.2,242C240.2,243.7 240.3,244.7 240.6,245.1C240.8,245.4 241.1,245.5 241.5,245.5C241.9,245.5 242.2,245.4 242.4,245.1C242.7,244.8 242.7,244.4 242.7,243.9L244.4,243.9C244.4,244.9 244.1,245.6 243.5,246.2C243,246.7 242.3,247 241.4,247C240.5,247 239.8,246.8 239.3,246.2C238.5,245.4 238.4,243.8 238.4,241.6C238.4,239.4 238.5,237.8 239.3,237C239.9,236.4 240.5,236.2 241.4,236.2C242.3,236.2 242.9,236.4 243.5,237C244.3,237.8 244.4,239.4 244.4,242L240.2,242ZM242.5,238.1C242.3,237.8 242,237.7 241.6,237.7C241.2,237.7 240.9,237.9 240.7,238.1C240.4,238.5 240.3,239.2 240.3,240.8L243,240.8C242.9,239.3 242.8,238.5 242.5,238.1Z" style="fill:rgb(22,94,158);fill-rule:nonzero;"/>
            <path d="M251.6,246.3C251.1,246.9 250.6,247.1 249.8,247.1C249.4,247.1 249,247 248.7,246.8C248.5,246.7 248.3,246.4 248.1,246.2L248.1,250.9L246.4,250.9L246.4,236.4L248,236.4L248,237.2C248.1,237 248.4,236.7 248.6,236.5C248.9,236.3 249.3,236.2 249.7,236.2C250.4,236.2 251,236.4 251.5,237C252.2,237.8 252.3,239.2 252.3,241.7C252.4,244.1 252.3,245.5 251.6,246.3ZM250.3,238.1C250.1,237.8 249.8,237.7 249.4,237.7C249.1,237.7 248.8,237.8 248.5,238C248.2,238.3 248.1,238.6 248.1,239.2L248.1,244C248.1,244.6 248.2,245 248.5,245.2C248.7,245.4 249,245.5 249.4,245.5C249.8,245.5 250.1,245.3 250.3,245.1C250.7,244.7 250.7,243.8 250.7,241.6C250.7,239.5 250.7,238.6 250.3,238.1Z" style="fill:rgb(22,94,158);fill-rule:nonzero;"/>
            <path d="M255.7,242C255.7,243.7 255.8,244.7 256.1,245.1C256.3,245.4 256.6,245.5 257,245.5C257.4,245.5 257.7,245.4 257.9,245.1C258.2,244.8 258.2,244.4 258.2,243.9L259.9,243.9C259.9,244.9 259.6,245.6 259,246.2C258.5,246.7 257.8,247 256.9,247C256,247 255.3,246.8 254.8,246.2C254,245.4 253.9,243.8 253.9,241.6C253.9,239.4 254,237.8 254.8,237C255.4,236.4 256,236.2 256.9,236.2C257.8,236.2 258.4,236.4 259,237C259.8,237.8 259.9,239.4 259.9,242L255.7,242ZM258,238.1C257.8,237.8 257.5,237.7 257.1,237.7C256.7,237.7 256.4,237.9 256.2,238.1C255.9,238.5 255.8,239.2 255.8,240.8L258.5,240.8C258.4,239.3 258.3,238.5 258,238.1Z" style="fill:rgb(22,94,158);fill-rule:nonzero;"/>
            <path d="M265.8,246.9L265.8,246C265.6,246.3 265.4,246.6 265.2,246.7C264.9,246.9 264.5,247.1 264,247.1C263.2,247.1 262.7,246.9 262.2,246.3C261.8,245.8 261.5,245 261.5,243.9C261.5,242.9 261.8,242.1 262.4,241.5C262.9,241 263.5,240.8 264.6,240.8L265.7,240.8L265.7,239.1C265.7,238.1 265.3,237.6 264.5,237.6C264.1,237.6 263.9,237.7 263.7,237.9C263.4,238.2 263.3,238.6 263.3,239.1L261.6,239.1C261.6,238.3 261.8,237.5 262.4,236.9C262.9,236.4 263.6,236.1 264.4,236.1C265.3,236.1 266,236.3 266.5,236.8C267,237.3 267.3,238 267.3,239.1L267.3,246.8L265.8,246.8L265.8,246.9ZM265.7,242L264.8,242C264.3,242 263.9,242.1 263.6,242.4C263.3,242.7 263.1,243.3 263.1,243.8C263.1,244.9 263.5,245.6 264.4,245.6C265.2,245.6 265.7,244.9 265.7,243.9L265.7,242Z" style="fill:rgb(22,94,158);fill-rule:nonzero;"/>
            <path d="M271,246.3C270.4,245.8 270.1,245 270.1,243.9L270.1,237.6L268.9,237.6L268.9,236.3L270.1,236.3L270.1,233.4L271.8,233.4L271.8,236.3L273.4,236.3L273.4,237.6L271.8,237.6L271.8,243.8C271.8,244.9 272.4,245.4 273.5,245.4L273.5,246.9C272.4,246.9 271.6,246.9 271,246.3Z" style="fill:rgb(22,94,158);fill-rule:nonzero;"/>
        </g>
        <circle cx="95.1" cy="241.5" r="1.9" style="fill:rgb(253,183,48);"/>
        <circle cx="159" cy="240.8" r="1.9" style="fill:rgb(143,197,77);"/>
        <circle cx="218.5" cy="241.6" r="1.9" style="fill:rgb(22,94,158);"/>
    </g>
    <g transform="matrix(1,0,0,1,-25.5,-43.5)">
        <circle cx="142" cy="95.8" r="7.2" style="fill:rgb(253,183,48);"/>
    </g>
    <g transform="matrix(1,0,0,1,-25.5,-43.5)">
        <circle cx="131.1" cy="82.8" r="7" style="fill:rgb(143,197,77);"/>
    </g>
    <g transform="matrix(1,0,0,1,-25.5,-43.5)">
        <circle cx="122.4" cy="69.9" r="6" style="fill:rgb(143,197,77);"/>
    </g>
    <g transform="matrix(1,0,0,1,-25.5,-43.5)">
        <circle cx="154.9" cy="108.9" r="7.2" style="fill:rgb(22,94,158);"/>
    </g>
    <g transform="matrix(1,0,0,1,-25.5,-43.5)">
        <circle cx="168.2" cy="122" r="7.2" style="fill:rgb(22,94,158);"/>
    </g>
    <g transform="matrix(0.5,-0.866,0.866,0.5,-47.0484,179.832)">
        <ellipse cx="182.6" cy="130.3" rx="6.2" ry="5.4" style="fill:rgb(22,94,158);"/>
    </g>
    <g transform="matrix(0.8373,-0.5468,0.5468,0.8373,-38.6413,30.6782)">
        <ellipse cx="118.1" cy="59.2" rx="6.6" ry="4" style="fill:rgb(143,197,77);"/>
    </g>
    <g transform="matrix(0.5,-0.866,0.866,0.5,-35.1243,86.6246)">
        <ellipse cx="107.9" cy="73.4" rx="6.6" ry="4.8" style="fill:rgb(143,197,77);"/>
    </g>
    <g transform="matrix(1,0,0,1,-25.5,-43.5)">
        <ellipse cx="114.3" cy="86.4" rx="6" ry="7" style="fill:rgb(143,197,77);"/>
    </g>
    <g transform="matrix(1,0,0,1,-25.5,-43.5)">
        <ellipse cx="101.2" cy="90.9" rx="4.5" ry="7" style="fill:rgb(143,197,77);"/>
    </g>
    <g transform="matrix(1,0,0,1,-25.5,-43.5)">
        <ellipse cx="124.7" cy="100.1" rx="7" ry="7.5" style="fill:rgb(143,197,77);"/>
    </g>
    <g transform="matrix(0.9816,-0.1911,0.1911,0.9816,-43.351,-20.6629)">
        <ellipse cx="109.5" cy="104" rx="5.3" ry="7.2" style="fill:rgb(143,197,77);"/>
    </g>
    <g transform="matrix(0.9816,-0.1911,0.1911,0.9816,-44.3317,-22.6608)">
        <ellipse cx="98.6" cy="108" rx="3.7" ry="6.6" style="fill:rgb(143,197,77);"/>
    </g>
    <g transform="matrix(0.8,-0.6,0.6,0.8,-66.5113,61.7055)">
        <ellipse cx="137.3" cy="114.1" rx="6.7" ry="8" style="fill:rgb(22,94,158);"/>
    </g>
    <g transform="matrix(0.8,-0.6,0.6,0.8,-71.8128,52.3678)">
        <ellipse cx="120.6" cy="117.4" rx="5.8" ry="8" style="fill:rgb(143,197,77);"/>
    </g>
    <g transform="matrix(0.9478,-0.3189,0.3189,0.9478,-58.3412,-2.8219)">
        <ellipse cx="107.8" cy="120.6" rx="4.6" ry="6.8" style="fill:rgb(143,197,77);"/>
    </g>
    <g transform="matrix(0.9478,-0.3189,0.3189,0.9478,-59.9119,-5.6321)">
        <ellipse cx="98.5" cy="124" rx="2.9" ry="5.7" style="fill:rgb(143,197,77);"/>
    </g>
    <g transform="matrix(0.8,-0.6,0.6,0.8,-81.3421,54.1147)">
        <ellipse cx="118.5" cy="132.6" rx="4.6" ry="7.3" style="fill:rgb(22,94,158);"/>
    </g>
    <g transform="matrix(0.4602,-0.8878,0.8878,0.4602,-83.0211,150.82)">
        <ellipse cx="131" cy="144.5" rx="4.6" ry="7.3" style="fill:rgb(22,94,158);"/>
    </g>
    <g transform="matrix(0.5699,-0.8217,0.8217,0.5699,-75.2585,122.352)">
        <ellipse cx="133.6" cy="130.5" rx="5.8" ry="8" style="fill:rgb(22,94,158);"/>
    </g>
    <g transform="matrix(0.352,-0.936,0.936,0.352,-62.6558,187.446)">
        <ellipse cx="148.2" cy="142.3" rx="5.5" ry="7.6" style="fill:rgb(22,94,158);"/>
    </g>
    <g transform="matrix(0.4602,-0.8878,0.8878,0.4602,-56.2499,159.423)">
        <ellipse cx="151.5" cy="126.7" rx="6.7" ry="8" style="fill:rgb(22,94,158);"/>
    </g>
    <g transform="matrix(0.9989,-0.0458718,0.0458718,0.9989,-31.6457,-35.7434)">
        <ellipse cx="165.9" cy="137.8" rx="7.1" ry="5.9" style="fill:rgb(22,94,158);"/>
    </g>
    <g transform="matrix(0.9897,-0.1434,0.1434,0.9897,-45.5562,-18.7862)">
        <ellipse cx="161.5" cy="151.5" rx="7" ry="5.1" style="fill:rgb(22,94,158);"/>
    </g>
    <g transform="matrix(0.9349,-0.3549,0.3549,0.9349,-65.4191,29.2158)">
        <ellipse cx="178.3" cy="145.2" rx="7.1" ry="4.5" style="fill:rgb(22,94,158);"/>
    </g>
    <g transform="matrix(0.5,-0.866,0.866,0.5,-46.4072,191.436)">
        <ellipse cx="193" cy="135.6" rx="6.8" ry="4.1" style="fill:rgb(22,94,158);"/>
    </g>
    <g transform="matrix(1,0,0,1,-25.5,-43.5)">
        <ellipse cx="139.1" cy="68.1" rx="6.6" ry="5.6" style="fill:rgb(143,197,77);"/>
    </g>
    <g transform="matrix(1,0,0,1,-25.5,-43.5)">
        <ellipse cx="155.8" cy="67.2" rx="5.8" ry="4.9" style="fill:rgb(253,183,48);"/>
    </g>
    <g transform="matrix(0.866,-0.5,0.5,0.866,-36.39,30.8127)">
        <ellipse cx="133.2" cy="57.5" rx="6.2" ry="5.1" style="fill:rgb(143,197,77);"/>
    </g>
    <g transform="matrix(1,0,0,1,-25.5,-43.5)">
        <ellipse cx="149.6" cy="57.6" rx="6.2" ry="4" style="fill:rgb(253,183,48);"/>
    </g>
    <g transform="matrix(1,0,0,1,-25.5,-43.5)">
        <ellipse cx="146.6" cy="49.4" rx="6.2" ry="3.2" style="fill:rgb(253,183,48);"/>
    </g>
    <g transform="matrix(0.2826,-0.9592,0.9592,0.2826,3.7467,155.96)">
        <ellipse cx="148" cy="80.2" rx="6.2" ry="7.1" style="fill:rgb(253,183,48);"/>
    </g>
    <g transform="matrix(0.5,-0.866,0.866,0.5,-25.9006,140.525)">
        <ellipse cx="159.2" cy="92.4" rx="6.4" ry="7.1" style="fill:rgb(253,183,48);"/>
    </g>
    <g transform="matrix(0.8,-0.6,0.6,0.8,-53.6242,80.0388)">
        <ellipse cx="171.2" cy="104" rx="6.4" ry="7.1" style="fill:rgb(253,183,48);"/>
    </g>
    <g transform="matrix(0.8,-0.6,0.6,0.8,-56.7823,89.7879)">
        <ellipse cx="184.3" cy="113.6" rx="5.8" ry="6.4" style="fill:rgb(22,94,158);"/>
    </g>
    <g transform="matrix(0.38,-0.925,0.925,0.38,-15.5234,211.235)">
        <ellipse cx="195" cy="119.9" rx="6.4" ry="4.5" style="fill:rgb(22,94,158);"/>
    </g>
    <g transform="matrix(1,0,0,1,-25.5,-43.5)">
        <ellipse cx="164.6" cy="77.4" rx="5.8" ry="5.4" style="fill:rgb(253,183,48);"/>
    </g>
    <g transform="matrix(1,0,0,1,-25.5,-43.5)">
        <circle cx="174" cy="87.5" r="5.8" style="fill:rgb(253,183,48);"/>
    </g>
    <g transform="matrix(1,0,0,1,-25.5,-43.5)">
        <ellipse cx="185.2" cy="96.3" rx="5.4" ry="6.3" style="fill:rgb(253,183,48);"/>
    </g>
    <g transform="matrix(1,0,0,1,-25.5,-43.5)">
        <ellipse cx="194.9" cy="103" rx="4.4" ry="6.3" style="fill:rgb(22,94,158);"/>
    </g>
    <g transform="matrix(0.1279,-0.9918,0.9918,0.1279,46.134,251.511)">
        <ellipse cx="203.6" cy="106.8" rx="6.3" ry="3.4" style="fill:rgb(22,94,158);"/>
    </g>
    <g transform="matrix(0.2056,-0.9786,0.9786,0.2056,-61.77,219.516)">
        <ellipse cx="143.9" cy="153.8" rx="4" ry="7.6" style="fill:rgb(22,94,158);"/>
    </g>
    <g transform="matrix(0.7586,-0.6516,0.6516,0.7586,-91.3252,67.7649)">
        <ellipse cx="117.2" cy="144.5" rx="3.5" ry="5.6" style="fill:rgb(22,94,158);"/>
    </g>
    <g transform="matrix(0.8,-0.6,0.6,0.8,-84.5698,47.7084)">
        <ellipse cx="107.3" cy="134.2" rx="3.4" ry="5.3" style="fill:rgb(143,197,77);"/>
    </g>
    <g transform="matrix(0.3081,-0.9513,0.9513,0.3081,-82.8218,184.42)">
        <ellipse cx="128" cy="153.4" rx="3.6" ry="5.9" style="fill:rgb(22,94,158);"/>
    </g>
    <g transform="matrix(1,0,0,1,-25.5,-43.5)">
        <ellipse cx="186" cy="81" rx="4.2" ry="5" style="fill:rgb(253,183,48);"/>
    </g>
    <g transform="matrix(1,0,0,1,-25.5,-43.5)">
        <ellipse cx="193.9" cy="87.3" rx="3.8" ry="5.6" style="fill:rgb(253,183,48);"/>
    </g>
    <g transform="matrix(0.9964,-0.0852151,0.0852151,0.9964,-32.5243,-26.048)">
        <ellipse cx="200.9" cy="91" rx="2.6" ry="6" style="fill:rgb(253,183,48);"/>
    </g>
    <g transform="matrix(0.9879,-0.1553,0.1553,0.9879,-37.347,-10.3493)">
        <ellipse cx="206.2" cy="92.4" rx="1.8" ry="6" style="fill:rgb(253,183,48);"/>
    </g>
    <g transform="matrix(1,0,0,1,-25.5,-43.5)">
        <ellipse cx="178.2" cy="73.9" rx="4.4" ry="4.7" style="fill:rgb(253,183,48);"/>
    </g>
    <g transform="matrix(0.0721037,-0.9974,0.9974,0.0721037,72.8943,166.25)">
        <ellipse cx="161.9" cy="52" rx="2.6" ry="6" style="fill:rgb(253,183,48);"/>
    </g>
    <g transform="matrix(0.0721037,-0.9974,0.9974,0.0721037,69.7425,176.243)">
        <ellipse cx="165.7" cy="58.7" rx="2.8" ry="5.8" style="fill:rgb(253,183,48);"/>
    </g>
    <g transform="matrix(0.9899,-0.1417,0.1417,0.9899,-33.1538,-18.5608)">
        <ellipse cx="171.3" cy="66.2" rx="5.1" ry="3.8" style="fill:rgb(253,183,48);"/>
    </g>
    <g transform="matrix(0.1579,-0.9874,0.9874,0.1579,63.7728,154.078)">
        <ellipse cx="160.5" cy="46.4" rx="1.7" ry="6.2" style="fill:rgb(253,183,48);"/>
    </g>
    <g transform="matrix(1,0,0,1,-25.5,-43.5)">
        <path d="M189.9,71.4C189.2,72.8 187.6,73.4 186.3,72.8C185,72.2 184.5,70.5 185.1,69.1C185.7,67.7 188.4,65.1 189.7,65.8C191.1,66.4 190.6,70 189.9,71.4Z" style="fill:rgb(253,183,48);fill-rule:nonzero;"/>
    </g>
    <g transform="matrix(1,0,0,1,-25.5,-43.5)">
        <path d="M183.8,67.7C182.4,68.4 180.8,67.9 180.1,66.6C179.5,65.3 180,63.7 181.4,63C182.8,62.3 186.4,61.9 187.1,63.2C187.7,64.4 185.2,67 183.8,67.7Z" style="fill:rgb(253,183,48);fill-rule:nonzero;"/>
    </g>
    <g transform="matrix(1,0,0,1,-25.5,-43.5)">
        <path d="M195,74.4C195,76.2 194.1,77.7 193,77.7C191.9,77.7 191,76.2 191,74.4C191,72.6 192,68.5 193.1,68.5C194.1,68.5 195,72.6 195,74.4Z" style="fill:rgb(253,183,48);fill-rule:nonzero;"/>
    </g>
    <g transform="matrix(1,0,0,1,-25.5,-43.5)">
        <path d="M199.2,77.6C199.4,79.8 198.9,81.6 197.9,81.7C196.9,81.8 196,80.1 195.7,78C195.5,75.8 195.7,70.9 196.7,70.8C197.7,70.6 199,75.4 199.2,77.6Z" style="fill:rgb(253,183,48);fill-rule:nonzero;"/>
    </g>
    <g transform="matrix(1,0,0,1,-25.5,-43.5)">
        <path d="M202.3,79C203,81.3 203,83.2 202.4,83.4C201.8,83.6 200.7,81.9 200.1,79.7C199.4,77.4 198.4,72.3 199,72.1C199.6,71.9 201.7,76.8 202.3,79Z" style="fill:rgb(253,183,48);fill-rule:nonzero;"/>
    </g>
    <g transform="matrix(1,0,0,1,-25.5,-43.5)">
        <path d="M178.4,61.6C176.6,61.7 175,60.9 175,59.8C175,58.8 176.4,57.9 178.3,57.8C180.2,57.7 184.3,58.5 184.3,59.5C184.3,60.6 180.2,61.6 178.4,61.6Z" style="fill:rgb(253,183,48);fill-rule:nonzero;"/>
    </g>
    <g transform="matrix(1,0,0,1,-25.5,-43.5)">
        <path d="M174.9,57.4C172.8,57.3 171.2,56.3 171.2,55.3C171.3,54.3 173,53.5 175.1,53.7C177.2,53.8 181.8,55 181.7,56.1C181.8,57.1 177,57.6 174.9,57.4Z" style="fill:rgb(253,183,48);fill-rule:nonzero;"/>
    </g>
    <g transform="matrix(1,0,0,1,-25.5,-43.5)">
        <path d="M173.2,52.7C170.9,52 169.3,50.8 169.5,50C169.7,49.2 171.8,49.1 174,49.8C176.3,50.5 181.1,52.7 180.9,53.5C180.7,54.3 175.4,53.4 173.2,52.7Z" style="fill:rgb(253,183,48);fill-rule:nonzero;"/>
    </g>
    <g transform="matrix(1,0,0,1,-25.5,-43.5)">
        <path d="M107.2,65.4C109.1,63.1 110,60.6 109.7,59.3C106.5,62.3 103.7,65.5 101.2,69.1C102.5,69.7 105,68.1 107.2,65.4Z" style="fill:rgb(143,197,77);fill-rule:nonzero;"/>
    </g>
    <g transform="matrix(1,0,0,1,-25.5,-43.5)">
        <path d="M94.5,86.6C96,87 98,84.3 99,80.7C99.8,77.7 99.6,75 98.7,73.8C96.6,77.5 94.8,81.5 93.6,85.7C93.8,86.2 94.1,86.5 94.5,86.6Z" style="fill:rgb(143,197,77);fill-rule:nonzero;"/>
        <path d="M92.2,104C93.8,104 95.2,101.1 95.2,97.5C95.2,93.9 93.9,91 92.2,91C91.4,94.9 91,98.9 91,103.1C91,103.2 91,103.3 91,103.4C91.3,103.7 91.8,104 92.2,104Z" style="fill:rgb(143,197,77);fill-rule:nonzero;"/>
        <path d="M94.2,113.6C93.7,110.5 92.4,108.1 91.2,108C91.5,112 92.3,115.8 93.3,119.5C94.2,118.7 94.5,116.3 94.2,113.6Z" style="fill:rgb(143,197,77);fill-rule:nonzero;"/>
        <path d="M98.6,132.1C99.9,134.3 101.3,136.5 102.8,138.5C102.7,137.7 102.4,136.7 101.9,135.6C101,133.6 99.6,132.2 98.6,132.1Z" style="fill:rgb(143,197,77);fill-rule:nonzero;"/>
    </g>
    <g transform="matrix(1,0,0,1,-25.5,-43.5)">
        <path d="M209,101.8C208.3,102.8 207.7,104.8 207.4,107.2C207,110.3 207.3,112.9 208,113.5C208.7,109.9 209,106.3 209,102.5C209.1,102.3 209,102.1 209,101.8Z" style="fill:rgb(22,94,158);fill-rule:nonzero;"/>
        <path d="M206.1,115.8C204.5,115.2 202.2,117.3 200.8,120.5C199.5,123.8 199.6,126.9 201.2,127.6C202,127.9 202.9,127.6 203.8,126.8C205.2,123.8 206.3,120.6 207.1,117.3C207,116.5 206.7,116 206.1,115.8Z" style="fill:rgb(22,94,158);fill-rule:nonzero;"/>
        <path d="M171.4,153.6C167.7,155 165.3,157.4 165.8,158.9C165.9,159.1 166,159.2 166.1,159.4C170.7,158.1 175,156.3 179.1,154L179.1,153.9C178.5,152.3 175,152.2 171.4,153.6Z" style="fill:rgb(22,94,158);fill-rule:nonzero;"/>
        <path d="M154.7,157.9C151,158.1 148.1,159.5 148.2,161.1C148.2,161.3 148.3,161.5 148.4,161.7C148.9,161.7 149.5,161.7 150,161.7C153.9,161.7 157.8,161.3 161.5,160.6L161.5,160.5C161.4,158.8 158.4,157.7 154.7,157.9Z" style="fill:rgb(22,94,158);fill-rule:nonzero;"/>
        <path d="M116.3,150.2C115.3,149.6 114.3,149.2 113.5,149C115.5,150.5 117.5,152 119.6,153.2C119.3,152.4 118,151.2 116.3,150.2Z" style="fill:rgb(22,94,158);fill-rule:nonzero;"/>
        <path d="M138.7,158.6C136,158.1 133.6,158.3 132.7,159.1C136.4,160.2 140.3,161 144.2,161.4C143.9,160.3 141.6,159.1 138.7,158.6Z" style="fill:rgb(22,94,158);fill-rule:nonzero;"/>
        <path d="M108.6,142.6C107.2,141.2 105.6,140.3 104.5,140.3C106.4,142.6 108.5,144.8 110.8,146.8C111,145.8 110.1,144.1 108.6,142.6Z" style="fill:rgb(22,94,158);fill-rule:nonzero;"/>
        <path d="M186.5,145.8C183.9,147.9 182.4,150.4 182.7,151.8C186.4,149.3 189.8,146.5 192.8,143.3C191.5,142.9 188.9,143.9 186.5,145.8Z" style="fill:rgb(22,94,158);fill-rule:nonzero;"/>
        <path d="M152.3,43.6C151.5,43.6 150.8,43.5 150,43.5C146.8,43.5 143.6,43.8 140.5,44.3C141.5,45 143.6,45.4 146.1,45.4C149.3,45.4 152,44.6 152.3,43.6Z" style="fill:rgb(253,183,48);fill-rule:nonzero;"/>
        <path d="M205.8,83.5C204.7,79.8 203.1,76.4 201.2,73.1C201.5,74.8 202.6,78.1 203.2,79.8C204.1,82.1 205.3,83.7 205.8,83.5Z" style="fill:rgb(253,183,48);fill-rule:nonzero;"/>
        <path d="M173.5,49.4C174.9,50 177.6,50.9 179.3,51.4C176.3,49.7 173.1,48.2 169.7,47L169.7,47.1C169.6,47.4 171.3,48.5 173.5,49.4Z" style="fill:rgb(253,183,48);fill-rule:nonzero;"/>
    </g>
    <g transform="matrix(1,0,0,1,-25.5,-43.5)">
        <path d="M187.8,57.1C187.3,56.9 186.9,56.6 186.6,56.5C186.5,56.4 186.4,56.4 186.3,56.3C186.5,56.5 186.7,56.6 186.9,56.8C187,56.8 187,56.8 187.1,56.9C187.3,56.9 187.5,57 187.8,57.1Z" style="fill:none;"/>
        <path d="M190.1,57.2C190,57.1 190,57.1 189.9,57L190.1,57.2Z" style="fill:none;"/>
        <path d="M196.8,67.1C197.6,68.8 198.5,70 198.8,69.9C198.9,69.9 198.9,69.8 198.9,69.7C198.2,68.6 197.4,67.6 196.6,66.6C196.7,66.8 196.7,67 196.8,67.1Z" style="fill:rgb(253,183,48);fill-rule:nonzero;"/>
        <path d="M186.3,56.3C185.5,55.7 184.7,55.1 183.8,54.5C184.2,54.9 185.1,55.6 186.3,56.3Z" style="fill:rgb(253,183,48);fill-rule:nonzero;"/>
        <path d="M186.9,56.8C185.3,56.2 183.9,56 183.8,56.3C183.7,56.6 184.9,57.4 186.6,58C187,58.2 187.6,58.3 188.2,58.5C188,58.5 187.7,58.4 187.5,58.4C186,58.2 184.7,58.4 184.7,58.7C184.7,59.1 185.9,59.5 187.4,59.6C187.8,59.6 188.4,59.7 189,59.7C188.8,59.7 188.7,59.7 188.5,59.8C187.2,60 186.3,60.5 186.3,60.8C186.4,61.2 187.4,61.3 188.7,61C189.3,60.9 190.2,60.7 190.9,60.5C190.4,60.8 190,61.2 189.7,61.5C189,62.2 188.7,63.1 189,63.5C189.4,63.8 190.2,63.5 190.9,62.8C191.1,62.6 191.3,62.3 191.5,62C191.4,62.6 191.3,63.1 191.2,63.5C191.1,64.7 191.4,65.8 191.9,65.8C192.4,65.8 192.8,64.9 193,63.8C193.1,64.3 193.1,64.8 193.2,65.1C193.5,66.7 194,68 194.4,67.9C194.7,67.8 194.8,66.9 194.7,65.7C194.7,65.8 194.8,66 194.8,66.1C195.3,67.8 196,69.1 196.3,69C196.6,68.9 196.5,67.5 196.1,65.9C193.5,62.7 190.3,59.6 186.9,56.8Z" style="fill:rgb(253,183,48);fill-rule:nonzero;"/>
    </g>
    <g transform="matrix(1,0,0,1,-25.5,-43.5)">
        <path d="M125.4,50.5C125.9,52 128.9,52.4 132.2,51.3C135.5,50.3 137.8,48.2 137.3,46.7C137,45.8 135.9,45.3 134.3,45.3C131.6,46 129,46.9 126.5,48C125.6,48.9 125.1,49.8 125.4,50.5Z" style="fill:rgb(143,197,77);fill-rule:nonzero;"/>
    </g>
</svg>
